<svg viewBox="0 0 72 72" xmlns="http://www.w3.org/2000/svg"><g fill="none" stroke="#000" stroke-linecap="round" stroke-linejoin="round" stroke-width="2"><path d="m15.05 43.95s-7.133-5.822-8.537-8.259c-4.392-7.595.9489-19.79 10.44-21.82"/><path d="m38.71 42.99 12.89 7.021"/><path d="m33.87 47.79 13 6.498"/><path d="m58.18 45.72-5.1-4.358-8.279-4.335"/><path d="m37.49 56.29c8.574 5.466 10.79-.2955 9.387-1.994 2.734 1.625 6.209-.517 4.731-4.283 3.844 1.847 7.022-1.034 6.579-4.283 3.326.591 5.395-2.142 4.435-5.392 6.721-4.585 5.041-19.03-.09878-25.36-9.287-1.459-11-2.362-20.98-3.943l-13.53-.6185c-2.005-.529-4.081.5703-4.779 2.533-.7519 2.816-1.677 4.971-3.599 8.378-.7286 1.786.1048 3.829 1.872 4.588 1.908.4767 2.78-.386 4.46-1.686 2.195-2.102 2.628-2.996 3.805-4.575l13.64 6.204 12.72 7.164c2.514 1.698 5.012 5.844 6.51 7.321"/><path d="m31.51 54.15c1.109-1.477 2.666-1.713 4.144-.9003 1.405.8125 2.439 2.362 1.478 4.063l-1.774 3.101c-1.109 1.477-3.178 1.698-4.582.6647-1.234-.9245-1.592-2.518-1.076-3.836 1.81-3.094 0 0 1.81-3.094z"/><path d="m25.84 50.98c1.109-1.477 2.666-1.713 4.144-.9003 1.405.8125 2.439 2.362 1.478 4.063l-1.774 3.101c-1.109 1.477-3.178 1.698-4.582.6647-1.234-.9245-1.592-2.518-1.076-3.836 1.81-3.094 0 0 1.81-3.094z"/><path d="m20.18 47.82c1.109-1.477 2.666-1.713 4.144-.9003 1.405.8125 2.439 2.362 1.478 4.063l-1.774 3.101c-1.109 1.477-3.178 1.698-4.582.6647-1.234-.9245-1.592-2.518-1.076-3.836 1.81-3.094 0 0 1.81-3.094z"/><path d="m14.53 44.65c1.109-1.477 2.666-1.713 4.144-.9003 1.405.8125 2.439 2.362 1.478 4.063l-1.774 3.101c-1.109 1.477-3.178 1.698-4.582.6647-1.234-.9245-1.592-2.518-1.076-3.836 1.81-3.094 0 0 1.81-3.094z"/></g></svg>