<?xml version="1.0" encoding="UTF-8"?><svg id="Layer_1" xmlns="http://www.w3.org/2000/svg" xmlns:xlink="http://www.w3.org/1999/xlink" viewBox="0 0 207.03 360"><defs><style>.cls-1{clip-path:url(#clippath);}.cls-2{fill:none;}.cls-2,.cls-3,.cls-4{stroke-width:0px;}.cls-3{fill:#EADDFF;}.cls-4{fill:#fff;}</style><clipPath id="clippath"><rect class="cls-2" width="207.03" height="360"/></clipPath></defs><g class="cls-1"><path class="cls-3" d="M209.54,285.78c2.03-.62,4.13-1.81,4.94-3.89.46-1.18.11-2.43-1.04-3.05-.86-.46-1.85-.56-2.8-.57-.61,0-2.22.37-2.7-.08-1.06-.99,1.28-2.31,1.88-2.73,1.94-1.36,3.86-3,4.93-5.16.82-1.66,1.19-3.68.42-5.43-.73-1.66-2.22-2.65-3.96-3.04-2.74-.6-5.89-.81-8.61.1-1.33.44-2.56,1.21-3.34,2.39-.97,1.48-1.47,3.69-.61,5.36.46.89,1.31,1.49,2.26,1.76.89.26,2.06.1,2.67.94,1.66,2.29-1.39,4.4-3.03,5.52-1.62,1.1-3.39,3.08-3.47,5.13-.22,5.29,9.61,3.63,12.47,2.75Z"/><path class="cls-3" d="M176.68,274.54c1.12,1.12,2.67.93,4.01.31,1.34-.62,2.54-1.51,3.97-1.95.65-.2,1.43-.38,2.08-.1.23.1.45.31.6.55.64,1.05-.92,1.19-1.57,1.36-2.88.77-5.09,3.6-4.81,6.63.37,4.06,5.05,5.38,8.42,4.27,3.2-1.06,5.04-3.96,5.33-7.22.3-3.43-.32-7.08-2.13-10.05-1.81-2.98-5.12-4.86-8.66-4.66-2.53.14-5.28,1.14-7.06,2.98-1.96,2.04-2.25,5.78-.16,7.88ZM186.96,280.56c-.23.15-.46.2-.69.18-.82-.09-1.45-1.18-.68-1.83.52-.43,1.61-.57,1.84.24.14.49-.06,1.12-.48,1.41Z"/><path class="cls-3" d="M162.6,288.41c.52-3.65-1.19-7.24-3.64-9.86-2.1-2.24-5.81-4.39-8.7-2.19-3.97,3.01-2.51,9.31-.12,12.8,1.77,2.59,5.54,6.56,9.02,4.74.07-.04.15-.08.22-.12,1.85-1.12,2.92-3.27,3.22-5.36Z"/><path class="cls-3" d="M165.19,299.87c.55-1.31.51-3.27-.78-4.2-1.04-.76-2.43-.55-3.36.27-1.57,1.4-2.09,4.67.08,5.79,1.64.85,3.41-.32,4.06-1.86Z"/><path class="cls-3" d="M155.63,306.67c.98-1.88,1.6-4.21.67-6.25-.52-1.15-1.66-1.78-2.9-1.39-.93.29-1.69.93-2.37,1.6-.43.43-1.29,1.85-1.95,1.88-1.44.06-.76-2.53-.64-3.26.39-2.34.55-4.86-.24-7.14-.61-1.75-1.8-3.43-3.59-4.1-1.7-.64-3.45-.27-4.94.71-2.35,1.54-4.69,3.64-5.95,6.22-.61,1.26-.93,2.68-.63,4.06.38,1.73,1.6,3.63,3.4,4.18.96.29,1.98.1,2.84-.39.81-.46,1.51-1.4,2.54-1.25,2.8.41,2.17,4.07,1.82,6.03-.35,1.92-.17,4.57,1.24,6.07,3.63,3.85,9.32-4.33,10.69-6.99Z"/><path class="cls-3" d="M124.61,322.28c1.59-.01,2.54-1.26,3.02-2.65.49-1.39.7-2.87,1.38-4.2.31-.6.73-1.29,1.38-1.55.23-.1.54-.1.81-.04,1.2.28.21,1.48-.13,2.07-1.46,2.59-.99,6.16,1.37,8.08,3.16,2.58,7.38.16,8.94-3.03,1.48-3.02.7-6.37-1.44-8.86-2.24-2.62-5.29-4.72-8.67-5.5-3.4-.79-7.05.26-9.39,2.93-1.67,1.9-2.88,4.57-2.81,7.13.08,2.83,2.55,5.65,5.52,5.62ZM136.11,319.14c-.05.27-.18.47-.35.62-.64.52-1.86.21-1.78-.8.05-.68.72-1.55,1.46-1.14.45.24.76.82.67,1.33Z"/><path class="cls-3" d="M124.67,342.05c-2.24-2.93-6.01-4.22-9.59-4.3-3.07-.07-7.2,1.08-7.66,4.69-.62,4.94,4.89,8.3,9.06,9.04,3.09.55,8.56.63,9.7-3.13.02-.08.05-.16.06-.24.5-2.11-.29-4.38-1.58-6.05Z"/><path class="cls-3" d="M134.67,348.22c-.55-1.31-1.98-2.65-3.54-2.38-1.27.22-2.1,1.35-2.16,2.59-.1,2.1,1.87,4.76,4.19,3.99,1.75-.58,2.16-2.66,1.51-4.2Z"/><path class="cls-3" d="M132.84,359.8c-.66-2.02-1.89-4.09-4-4.85-1.19-.43-2.43-.06-3.02,1.1-.44.87-.52,1.86-.52,2.82,0,.61.42,2.22-.02,2.7-.96,1.08-2.34-1.23-2.77-1.82-1.4-1.91-3.08-3.79-5.27-4.82-1.68-.79-3.71-1.12-5.44-.31-1.64.77-2.61,2.28-2.95,4.03-.55,2.75-.68,5.9.29,8.6.47,1.32,1.26,2.54,2.46,3.29,1.5.94,3.72,1.4,5.37.5.88-.48,1.46-1.34,1.71-2.3.24-.9.06-2.06.89-2.69,2.25-1.71,4.43,1.3,5.58,2.92,1.13,1.59,3.15,3.32,5.21,3.36,5.29.1,3.42-9.69,2.49-12.53Z"/><path class="cls-3" d="M271.11,359.04c.27,5.05-.16,10.26-1.41,15.57-8.34,35.58-51.49,56.76-85.11,43.44-15.29-6.06-28.1-18.29-35-33.22-17.64-38.13,5.79-82.95,48.06-86.05,35.13-2.57,71.56,24.9,73.46,60.26Z"/><path class="cls-4" d="M248.28,376.71c-.47,12.05-9.29,24.46-21.11,27.64-8.88,2.39-18.25-.12-24.41-6.87-13.02-14.27-10-39.51,9.36-46.18,18.07-6.22,36.92,5.77,36.16,25.41Z"/><path class="cls-3" d="M74.9,364.01c.58,2.04,1.72,4.17,3.79,5.02,1.17.48,2.43.16,3.07-.97.48-.85.6-1.83.63-2.79.02-.61-.32-2.23.14-2.7,1.01-1.04,2.29,1.33,2.69,1.94,1.32,1.97,2.92,3.92,5.06,5.04,1.64.86,3.66,1.27,5.42.54,1.67-.7,2.7-2.17,3.12-3.9.66-2.73.93-5.87.08-8.61-.42-1.34-1.15-2.59-2.32-3.39-1.46-1-3.65-1.55-5.34-.72-.9.44-1.51,1.28-1.81,2.22-.28.89-.14,2.05-1,2.65-2.32,1.61-4.37-1.48-5.45-3.15-1.06-1.64-3.01-3.45-5.06-3.58-5.28-.33-3.83,9.53-3.01,12.41Z"/><path class="cls-3" d="M86.83,331.4c-1.15,1.1-.99,2.65-.39,4,.6,1.35,1.46,2.57,1.87,4.01.19.65.35,1.44.05,2.08-.1.23-.32.44-.57.59-1.06.62-1.17-.94-1.33-1.6-.71-2.89-3.5-5.16-6.53-4.95-4.07.29-5.49,4.93-4.45,8.33.99,3.22,3.85,5.12,7.11,5.48,3.43.37,7.09-.18,10.09-1.92,3.02-1.75,4.97-5.01,4.84-8.56-.09-2.53-1.03-5.3-2.83-7.12-1.99-2.01-5.73-2.37-7.87-.32ZM80.6,341.56c-.15-.23-.19-.47-.17-.69.11-.81,1.21-1.43,1.84-.64.42.53.54,1.62-.28,1.83-.49.13-1.12-.08-1.4-.51Z"/><path class="cls-3" d="M73.26,317.03c3.64.6,7.27-1.03,9.93-3.43,2.29-2.06,4.51-5.71,2.37-8.66-2.93-4.03-9.25-2.7-12.8-.39-2.63,1.72-6.68,5.4-4.93,8.92.04.07.08.15.12.22,1.08,1.88,3.21,2.99,5.29,3.33Z"/><path class="cls-3" d="M61.74,319.38c1.3.58,3.26.58,4.21-.69.78-1.03.6-2.42-.2-3.37-1.37-1.6-4.62-2.18-5.79-.04-.88,1.62.24,3.42,1.77,4.1Z"/><path class="cls-3" d="M55.15,309.68c1.86,1.02,4.18,1.69,6.24.8,1.16-.5,1.81-1.62,1.45-2.87-.27-.94-.89-1.71-1.55-2.41-.42-.44-1.82-1.33-1.83-1.99-.03-1.45,2.55-.7,3.27-.57,2.33.44,4.85.66,7.14-.09,1.76-.57,3.47-1.72,4.17-3.5.67-1.68.34-3.45-.6-4.96-1.49-2.38-3.54-4.77-6.09-6.08-1.25-.64-2.66-.99-4.05-.71-1.74.34-3.66,1.53-4.25,3.31-.31.95-.14,1.98.33,2.85.44.82,1.37,1.54,1.19,2.57-.47,2.79-4.11,2.08-6.06,1.69-1.91-.39-4.57-.26-6.1,1.11-3.93,3.54,4.13,9.4,6.76,10.84Z"/><path class="cls-3" d="M40.19,278.34c-.02,1.59,1.21,2.56,2.58,3.08,1.38.52,2.86.76,4.17,1.47.6.32,1.27.75,1.52,1.42.09.23.09.54.02.81-.3,1.19-1.49.17-2.07-.17-2.56-1.52-6.14-1.12-8.1,1.2-2.64,3.11-.32,7.37,2.84,9,2.99,1.54,6.35.83,8.89-1.25,2.66-2.19,4.83-5.19,5.69-8.55.86-3.38-.11-7.06-2.73-9.45-1.87-1.71-4.51-2.97-7.07-2.96-2.83.02-5.71,2.43-5.74,5.4ZM43.09,289.9c-.27-.05-.47-.19-.61-.36-.51-.65-.17-1.86.83-1.76.68.07,1.53.75,1.11,1.48-.25.44-.84.74-1.34.64Z"/><path class="cls-3" d="M20.43,277.98c2.97-2.18,4.35-5.92,4.5-9.5.13-3.07-.92-7.22-4.52-7.75-4.93-.73-8.41,4.72-9.23,8.87-.61,3.08-.81,8.55,2.93,9.76.08.03.16.05.24.07,2.09.54,4.38-.2,6.09-1.45Z"/><path class="cls-3" d="M14.05,287.85c1.32-.53,2.69-1.92,2.46-3.49-.19-1.27-1.31-2.13-2.54-2.21-2.1-.14-4.79,1.77-4.08,4.1.54,1.77,2.61,2.22,4.17,1.6Z"/><path class="cls-3" d="M2.51,285.78c2.03-.62,4.13-1.81,4.94-3.89.46-1.18.11-2.43-1.04-3.05-.86-.46-1.85-.56-2.8-.57-.61,0-2.22.37-2.7-.08-1.06-.99,1.28-2.31,1.88-2.73,1.94-1.36,3.86-3,4.93-5.16.82-1.66,1.19-3.68.42-5.43-.73-1.66-2.22-2.65-3.96-3.04-2.74-.6-5.89-.81-8.61.1-1.33.44-2.56,1.21-3.34,2.39-.97,1.48-1.47,3.69-.61,5.36.46.89,1.31,1.49,2.26,1.76.89.26,2.06.1,2.67.94,1.66,2.29-1.39,4.4-3.03,5.52-1.62,1.1-3.39,3.08-3.47,5.13-.22,5.29,9.61,3.63,12.47,2.75Z"/><path class="cls-3" d="M64.08,359.04c.27,5.05-.16,10.26-1.41,15.57-8.34,35.58-51.49,56.76-85.11,43.44-15.29-6.06-28.1-18.29-35-33.22-17.64-38.13,5.79-82.95,48.06-86.05,35.13-2.57,71.56,24.9,73.46,60.26Z"/><path class="cls-4" d="M41.25,376.71c-.47,12.05-9.29,24.46-21.11,27.64-8.88,2.39-18.25-.12-24.41-6.87-13.02-14.27-10-39.51,9.36-46.18,18.07-6.22,36.92,5.77,36.16,25.41Z"/><path class="cls-3" d="M80.44,261.78c-3.06,2.05-4.59,5.73-4.89,9.3-.26,3.06.62,7.25,4.19,7.94,4.89.94,8.6-4.36,9.59-8.47.74-3.05,1.17-8.51-2.52-9.88-.08-.03-.16-.06-.24-.08-2.07-.63-4.39.02-6.14,1.19Z"/><path class="cls-3" d="M87.23,252.19c-1.34.47-2.77,1.81-2.6,3.39.14,1.28,1.22,2.18,2.45,2.32,2.09.23,4.86-1.57,4.25-3.93-.47-1.79-2.52-2.33-4.1-1.77Z"/><path class="cls-3" d="M98.67,254.75c-2.05.53-4.2,1.63-5.1,3.68-.51,1.16-.21,2.42.91,3.09.84.5,1.82.64,2.78.69.61.03,2.24-.27,2.7.19,1.01,1.03-1.38,2.26-1.99,2.65-2,1.28-3.98,2.84-5.14,4.95-.89,1.63-1.35,3.63-.65,5.41.66,1.69,2.11,2.75,3.83,3.2,2.71.72,5.85,1.05,8.6.26,1.34-.39,2.61-1.1,3.44-2.25,1.03-1.44,1.63-3.62.83-5.33-.42-.91-1.25-1.54-2.19-1.85-.88-.29-2.05-.19-2.63-1.06-1.56-2.36,1.57-4.34,3.26-5.38,1.66-1.03,3.51-2.94,3.68-4.98.44-5.27-9.45-4.03-12.35-3.27Z"/><path class="cls-3" d="M131.03,267.36c-1.07-1.17-2.63-1.04-3.99-.48-1.36.57-2.6,1.4-4.05,1.78-.65.17-1.44.32-2.08,0-.23-.11-.44-.33-.57-.58-.6-1.08.96-1.15,1.62-1.29,2.91-.65,5.24-3.39,5.09-6.42-.2-4.08-4.82-5.59-8.23-4.62-3.24.92-5.2,3.74-5.63,6.99-.44,3.42.03,7.09,1.71,10.13,1.69,3.05,4.91,5.07,8.46,5.02,2.53-.04,5.32-.92,7.18-2.68,2.05-1.95,2.49-5.68.49-7.86ZM121.01,260.91c.23-.14.47-.18.69-.15.81.12,1.4,1.24.6,1.86-.54.41-1.63.5-1.83-.32-.12-.49.1-1.12.54-1.39Z"/><path class="cls-3" d="M145.68,254.09c-.67,3.63.88,7.29,3.22,10,2.01,2.33,5.62,4.63,8.6,2.56,4.09-2.84,2.9-9.19.66-12.78-1.66-2.66-5.26-6.79-8.82-5.11-.08.04-.15.07-.22.11-1.9,1.04-3.06,3.15-3.44,5.22Z"/><path class="cls-3" d="M143.58,242.53c-.6,1.29-.64,3.24.6,4.23,1.01.8,2.41.65,3.37-.13,1.63-1.33,2.28-4.57.16-5.78-1.6-.92-3.42.17-4.13,1.68Z"/><path class="cls-3" d="M153.41,236.14c-1.06,1.84-1.77,4.14-.93,6.22.48,1.17,1.58,1.84,2.84,1.51.94-.25,1.73-.85,2.44-1.5.45-.41,1.37-1.79,2.03-1.79,1.45,0,.65,2.56.5,3.28-.48,2.32-.76,4.83-.06,7.14.54,1.78,1.65,3.5,3.41,4.25,1.67.71,3.44.41,4.97-.5,2.41-1.44,4.84-3.44,6.2-5.97.66-1.23,1.04-2.63.8-4.03-.31-1.74-1.45-3.7-3.22-4.32-.94-.33-1.97-.18-2.85.27-.83.42-1.57,1.33-2.59,1.14-2.78-.53-2-4.16-1.56-6.1.43-1.91.36-4.56-.98-6.12-3.46-4-9.49,3.93-10.98,6.53Z"/><path class="cls-3" d="M185.06,221.85c-1.59-.05-2.59,1.15-3.13,2.52-.55,1.37-.82,2.84-1.56,4.14-.33.59-.78,1.26-1.45,1.49-.24.09-.54.08-.81,0-1.19-.33-.14-1.49.21-2.06,1.57-2.53,1.24-6.11-1.03-8.13-3.05-2.71-7.37-.47-9.06,2.65-1.61,2.96-.97,6.33,1.06,8.91,2.13,2.71,5.08,4.94,8.43,5.86,3.36.93,7.06.04,9.5-2.53,1.74-1.83,3.07-4.44,3.1-7.01.04-2.83-2.31-5.76-5.27-5.85ZM173.44,224.5c.06-.27.2-.46.38-.6.66-.49,1.87-.13,1.75.87-.08.67-.78,1.52-1.51,1.08-.43-.26-.73-.85-.62-1.35Z"/><path class="cls-3" d="M185.83,202.09c2.12,3.02,5.82,4.47,9.4,4.7,3.07.19,7.24-.77,7.85-4.36.83-4.91-4.54-8.5-8.67-9.41-3.07-.68-8.53-.99-9.82,2.72-.03.08-.05.16-.07.24-.59,2.08.11,4.39,1.32,6.12Z"/><path class="cls-3" d="M176.1,195.51c.5,1.33,1.87,2.73,3.44,2.53,1.28-.16,2.15-1.26,2.26-2.5.19-2.1-1.67-4.83-4.02-4.16-1.78.51-2.27,2.57-1.69,4.13Z"/><path class="cls-3" d="M178.42,184.01c.58,2.04,1.72,4.17,3.79,5.02,1.17.48,2.43.16,3.07-.97.48-.85.6-1.83.63-2.79.02-.61-.32-2.23.14-2.7,1.01-1.04,2.29,1.33,2.69,1.94,1.32,1.97,2.92,3.92,5.06,5.04,1.64.86,3.66,1.27,5.42.54,1.67-.7,2.7-2.17,3.12-3.9.66-2.73.93-5.87.08-8.61-.42-1.34-1.15-2.59-2.32-3.39-1.46-1-3.65-1.55-5.34-.72-.9.44-1.51,1.28-1.81,2.22-.28.89-.14,2.05-1,2.65-2.32,1.61-4.37-1.48-5.45-3.15-1.06-1.64-3.01-3.45-5.06-3.58-5.28-.33-3.83,9.53-3.01,12.41Z"/><path class="cls-3" d="M190.35,151.4c-1.15,1.1-.99,2.65-.39,4,.6,1.35,1.46,2.57,1.87,4.01.19.65.35,1.44.05,2.08-.1.23-.32.44-.57.59-1.06.62-1.17-.94-1.33-1.6-.71-2.89-3.5-5.16-6.53-4.95-4.07.29-5.49,4.93-4.45,8.33.99,3.22,3.85,5.12,7.11,5.48,3.43.37,7.09-.18,10.09-1.92,3.02-1.75,4.97-5.01,4.84-8.56-.09-2.53-1.03-5.3-2.83-7.12-1.99-2.01-5.73-2.37-7.87-.32ZM184.11,161.56c-.15-.23-.19-.47-.17-.69.11-.81,1.21-1.43,1.84-.64.42.53.54,1.62-.28,1.83-.49.13-1.12-.08-1.4-.51Z"/><path class="cls-3" d="M176.77,137.03c3.64.6,7.27-1.03,9.93-3.43,2.29-2.06,4.51-5.71,2.37-8.66-2.93-4.03-9.25-2.7-12.8-.39-2.63,1.72-6.68,5.4-4.93,8.92.04.07.08.15.12.22,1.08,1.88,3.21,2.99,5.29,3.33Z"/><path class="cls-3" d="M165.26,139.38c1.3.58,3.26.58,4.21-.69.78-1.03.6-2.42-.2-3.37-1.37-1.6-4.62-2.18-5.79-.04-.88,1.62.24,3.42,1.77,4.1Z"/><path class="cls-3" d="M158.67,129.68c1.86,1.02,4.18,1.69,6.24.8,1.16-.5,1.81-1.62,1.45-2.87-.27-.94-.89-1.71-1.55-2.41-.42-.44-1.82-1.33-1.83-1.99-.03-1.45,2.55-.7,3.27-.57,2.33.44,4.85.66,7.14-.09,1.76-.57,3.47-1.72,4.17-3.5.67-1.68.34-3.45-.6-4.96-1.49-2.38-3.54-4.77-6.09-6.08-1.25-.64-2.66-.99-4.05-.71-1.74.34-3.66,1.53-4.25,3.31-.31.95-.14,1.98.33,2.85.44.82,1.37,1.54,1.19,2.57-.47,2.79-4.11,2.08-6.06,1.69-1.91-.39-4.57-.26-6.1,1.11-3.93,3.54,4.13,9.4,6.76,10.84Z"/><path class="cls-3" d="M143.71,98.34c-.02,1.59,1.21,2.56,2.58,3.08,1.38.52,2.86.76,4.17,1.47.6.32,1.27.75,1.52,1.42.09.23.09.54.02.81-.3,1.19-1.49.17-2.07-.17-2.56-1.52-6.14-1.12-8.1,1.2-2.64,3.11-.32,7.37,2.84,9,2.99,1.54,6.35.83,8.89-1.25,2.66-2.19,4.83-5.19,5.69-8.55.86-3.38-.11-7.06-2.73-9.45-1.87-1.71-4.51-2.97-7.07-2.96-2.83.02-5.71,2.43-5.74,5.4ZM146.6,109.9c-.27-.05-.47-.19-.61-.36-.51-.65-.17-1.86.83-1.76.68.07,1.53.75,1.11,1.48-.25.44-.84.74-1.34.64Z"/><path class="cls-3" d="M123.94,97.98c2.97-2.18,4.35-5.92,4.5-9.5.13-3.07-.92-7.22-4.52-7.75-4.93-.73-8.41,4.72-9.23,8.87-.61,3.08-.81,8.55,2.93,9.76.08.03.16.05.24.07,2.09.54,4.38-.2,6.09-1.45Z"/><path class="cls-3" d="M117.57,107.85c1.32-.53,2.69-1.92,2.46-3.49-.19-1.27-1.31-2.13-2.54-2.21-2.1-.14-4.79,1.77-4.08,4.1.54,1.77,2.61,2.22,4.17,1.6Z"/><path class="cls-3" d="M106.02,105.78c2.03-.62,4.13-1.81,4.94-3.89.46-1.18.11-2.43-1.04-3.05-.86-.46-1.85-.56-2.8-.57-.61,0-2.22.37-2.7-.08-1.06-.99,1.28-2.31,1.88-2.73,1.94-1.36,3.86-3,4.93-5.16.82-1.66,1.19-3.68.42-5.43-.73-1.66-2.22-2.65-3.96-3.04-2.74-.6-5.89-.81-8.61.1-1.33.44-2.56,1.21-3.34,2.39-.97,1.48-1.47,3.69-.61,5.36.46.89,1.31,1.49,2.26,1.76.89.26,2.06.1,2.67.94,1.66,2.29-1.39,4.4-3.03,5.52-1.62,1.1-3.39,3.08-3.47,5.13-.22,5.29,9.61,3.63,12.47,2.75Z"/><path class="cls-3" d="M73.16,94.54c1.12,1.12,2.67.93,4.01.31,1.34-.62,2.54-1.51,3.97-1.95.65-.2,1.43-.38,2.08-.1.23.1.45.31.6.55.64,1.05-.92,1.19-1.57,1.36-2.88.77-5.09,3.6-4.81,6.63.37,4.06,5.05,5.38,8.42,4.27,3.2-1.06,5.04-3.96,5.33-7.22.3-3.43-.32-7.08-2.13-10.05-1.81-2.98-5.12-4.86-8.66-4.66-2.53.14-5.28,1.14-7.06,2.98-1.96,2.04-2.25,5.78-.16,7.88ZM83.45,100.56c-.23.15-.46.2-.69.18-.82-.09-1.45-1.18-.68-1.83.52-.43,1.61-.57,1.84.24.14.49-.06,1.12-.48,1.41Z"/><path class="cls-3" d="M59.08,108.41c.52-3.65-1.19-7.24-3.64-9.86-2.1-2.24-5.81-4.39-8.7-2.19-3.97,3.01-2.51,9.31-.12,12.8,1.77,2.59,5.54,6.56,9.02,4.74.07-.04.15-.08.22-.12,1.85-1.12,2.92-3.27,3.22-5.36Z"/><path class="cls-3" d="M61.67,119.87c.55-1.31.51-3.27-.78-4.2-1.04-.76-2.43-.55-3.36.27-1.57,1.4-2.09,4.67.08,5.79,1.64.85,3.41-.32,4.06-1.86Z"/><path class="cls-3" d="M52.11,126.67c.98-1.88,1.6-4.21.67-6.25-.52-1.15-1.66-1.78-2.9-1.39-.93.29-1.69.93-2.37,1.6-.43.43-1.29,1.85-1.95,1.88-1.44.06-.76-2.53-.64-3.26.39-2.34.55-4.86-.24-7.14-.61-1.75-1.8-3.43-3.59-4.1-1.7-.64-3.45-.27-4.94.71-2.35,1.54-4.69,3.64-5.95,6.22-.61,1.26-.93,2.68-.63,4.06.38,1.73,1.6,3.63,3.4,4.18.96.29,1.98.1,2.84-.39.81-.46,1.51-1.4,2.54-1.25,2.8.41,2.17,4.07,1.82,6.03-.35,1.92-.17,4.57,1.24,6.07,3.63,3.85,9.32-4.33,10.69-6.99Z"/><path class="cls-3" d="M21.09,142.28c1.59-.01,2.54-1.26,3.02-2.65.49-1.39.7-2.87,1.38-4.2.31-.6.73-1.29,1.38-1.55.23-.1.54-.1.81-.04,1.2.28.21,1.48-.13,2.07-1.46,2.59-.99,6.16,1.37,8.08,3.16,2.58,7.38.16,8.94-3.03,1.48-3.02.7-6.37-1.44-8.86-2.24-2.62-5.29-4.72-8.67-5.5-3.4-.79-7.05.26-9.39,2.93-1.67,1.9-2.88,4.57-2.81,7.13.08,2.83,2.55,5.65,5.52,5.62ZM32.59,139.14c-.05.27-.18.47-.35.62-.64.52-1.86.21-1.78-.8.05-.68.72-1.55,1.46-1.14.45.24.76.82.67,1.33Z"/><path class="cls-3" d="M21.16,162.05c-2.24-2.93-6.01-4.22-9.59-4.3-3.07-.07-7.2,1.08-7.66,4.69-.62,4.94,4.89,8.3,9.06,9.04,3.09.55,8.56.63,9.7-3.13.02-.08.05-.16.06-.24.5-2.11-.29-4.38-1.58-6.05Z"/><path class="cls-3" d="M31.16,168.22c-.55-1.31-1.98-2.65-3.54-2.38-1.27.22-2.1,1.35-2.16,2.59-.1,2.1,1.87,4.76,4.19,3.99,1.75-.58,2.16-2.66,1.51-4.2Z"/><path class="cls-3" d="M29.33,179.8c-.66-2.02-1.89-4.09-4-4.85-1.19-.43-2.43-.06-3.02,1.1-.44.87-.52,1.86-.52,2.82,0,.61.42,2.22-.02,2.7-.96,1.08-2.34-1.23-2.77-1.82-1.4-1.91-3.08-3.79-5.27-4.82-1.68-.79-3.71-1.12-5.44-.31-1.64.77-2.61,2.28-2.95,4.03-.55,2.75-.68,5.9.29,8.6.47,1.32,1.26,2.54,2.46,3.29,1.5.94,3.72,1.4,5.37.5.88-.48,1.46-1.34,1.71-2.3.24-.9.06-2.06.89-2.69,2.25-1.71,4.43,1.3,5.58,2.92,1.13,1.59,3.15,3.32,5.21,3.36,5.29.1,3.42-9.69,2.49-12.53Z"/><path class="cls-3" d="M18.78,212.89c1.1-1.14.87-2.69.22-4.01-.65-1.33-1.56-2.51-2.04-3.93-.22-.64-.41-1.42-.14-2.08.09-.23.3-.46.54-.61,1.04-.66,1.2.89,1.39,1.54.83,2.86,3.71,5.01,6.73,4.67,4.05-.46,5.28-5.16,4.09-8.51-1.12-3.17-4.06-4.96-7.33-5.17-3.44-.23-7.07.47-10,2.35-2.94,1.88-4.75,5.22-4.47,8.76.2,2.52,1.25,5.25,3.13,6.99,2.08,1.92,5.83,2.13,7.88,0ZM24.58,202.48c.16.22.21.46.19.68-.07.82-1.15,1.48-1.82.71-.45-.51-.6-1.59.2-1.84.49-.15,1.12.03,1.42.45Z"/><path class="cls-3" d="M32.95,226.67c-3.66-.44-7.22,1.34-9.78,3.85-2.2,2.15-4.27,5.9-2.01,8.75,3.09,3.9,9.36,2.31,12.8-.15,2.55-1.83,6.44-5.68,4.55-9.12-.04-.07-.08-.15-.13-.22-1.16-1.83-3.33-2.85-5.43-3.11Z"/><path class="cls-3" d="M44.35,223.84c-1.32-.52-3.28-.44-4.18.87-.73,1.06-.5,2.45.34,3.35,1.43,1.54,4.71,1.99,5.78-.2.81-1.66-.39-3.41-1.94-4.02Z"/><path class="cls-3" d="M51.35,233.26c-1.9-.94-4.25-1.51-6.26-.54-1.14.55-1.74,1.7-1.33,2.93.31.92.96,1.67,1.65,2.34.44.43,1.87,1.25,1.92,1.91.09,1.44-2.52.81-3.24.71-2.35-.34-4.87-.45-7.13.39-1.74.65-3.39,1.87-4.02,3.67-.6,1.71-.2,3.46.81,4.93,1.59,2.32,3.74,4.62,6.35,5.81,1.27.58,2.69.88,4.08.54,1.72-.42,3.6-1.68,4.11-3.49.27-.96.06-1.98-.45-2.83-.48-.8-1.43-1.48-1.3-2.52.36-2.81,4.02-2.26,5.99-1.95,1.93.31,4.58.07,6.04-1.37,3.78-3.71-4.53-9.22-7.21-10.54Z"/><path class="cls-3" d="M67.61,263.94c-.05-1.59-1.31-2.51-2.71-2.97-1.4-.46-2.89-.64-4.23-1.29-.61-.29-1.3-.7-1.58-1.35-.1-.23-.11-.54-.06-.81.25-1.21,1.48-.24,2.07.08,2.62,1.41,6.18.86,8.05-1.54,2.51-3.22,0-7.38-3.21-8.88-3.05-1.42-6.38-.57-8.83,1.62-2.57,2.3-4.61,5.39-5.32,8.79-.72,3.41.4,7.04,3.13,9.32,1.94,1.62,4.63,2.78,7.19,2.66,2.83-.14,5.6-2.67,5.51-5.63ZM64.23,252.51c.27.04.48.17.62.34.53.62.25,1.86-.76,1.8-.68-.04-1.56-.68-1.17-1.43.23-.45.81-.78,1.31-.7Z"/><path class="cls-3" d="M167.6,179.04c.27,5.05-.16,10.26-1.41,15.57-8.34,35.58-51.49,56.76-85.11,43.44-15.29-6.06-28.1-18.29-35-33.22-17.64-38.13,5.79-82.95,48.06-86.05,35.13-2.57,71.56,24.9,73.46,60.26Z"/><path class="cls-4" d="M144.76,196.71c-.47,12.05-9.29,24.46-21.11,27.64-8.88,2.39-18.25-.12-24.41-6.87-13.02-14.27-10-39.51,9.36-46.18,18.07-6.22,36.92,5.77,36.16,25.41Z"/><path class="cls-3" d="M183.96,81.78c-3.06,2.05-4.59,5.73-4.89,9.3-.26,3.06.62,7.25,4.19,7.94,4.89.94,8.6-4.36,9.59-8.47.74-3.05,1.17-8.51-2.52-9.88-.08-.03-.16-.06-.24-.08-2.07-.63-4.39.02-6.14,1.19Z"/><path class="cls-3" d="M190.74,72.19c-1.34.47-2.77,1.81-2.6,3.39.14,1.28,1.22,2.18,2.45,2.32,2.09.23,4.86-1.57,4.25-3.93-.47-1.79-2.52-2.33-4.1-1.77Z"/><path class="cls-3" d="M202.19,74.75c-2.05.53-4.2,1.63-5.1,3.68-.51,1.16-.21,2.42.91,3.09.84.5,1.82.64,2.78.69.61.03,2.24-.27,2.7.19,1.01,1.03-1.38,2.26-1.99,2.65-2,1.28-3.98,2.84-5.14,4.95-.89,1.63-1.35,3.63-.65,5.41.66,1.69,2.11,2.75,3.83,3.2,2.71.72,5.85,1.05,8.6.26,1.34-.39,2.61-1.1,3.44-2.25,1.03-1.44,1.63-3.62.83-5.33-.42-.91-1.25-1.54-2.19-1.85-.88-.29-2.05-.19-2.63-1.06-1.56-2.36,1.57-4.34,3.26-5.38,1.66-1.03,3.51-2.94,3.68-4.98.44-5.27-9.45-4.03-12.35-3.27Z"/><path class="cls-3" d="M132.84-.2c-.66-2.02-1.89-4.09-4-4.85-1.19-.43-2.43-.06-3.02,1.1-.44.87-.52,1.86-.52,2.82,0,.61.42,2.22-.02,2.7-.96,1.08-2.34-1.23-2.77-1.82-1.4-1.91-3.08-3.79-5.27-4.82-1.68-.79-3.71-1.12-5.44-.31-1.64.77-2.61,2.28-2.95,4.03-.55,2.75-.68,5.9.29,8.6.47,1.32,1.26,2.54,2.46,3.29,1.5.94,3.72,1.4,5.37.5.88-.48,1.46-1.34,1.71-2.3.24-.9.06-2.06.89-2.69,2.25-1.71,4.43,1.3,5.58,2.92,1.13,1.59,3.15,3.32,5.21,3.36,5.29.1,3.42-9.69,2.49-12.53Z"/><path class="cls-3" d="M122.29,32.89c1.1-1.14.87-2.69.22-4.01-.65-1.33-1.56-2.51-2.04-3.93-.22-.64-.41-1.42-.14-2.08.09-.23.3-.46.54-.61,1.04-.66,1.2.89,1.39,1.54.83,2.86,3.71,5.01,6.73,4.67,4.05-.46,5.28-5.16,4.09-8.51-1.12-3.17-4.06-4.96-7.33-5.17-3.44-.23-7.07.47-10,2.35-2.94,1.88-4.75,5.22-4.47,8.76.2,2.52,1.25,5.25,3.13,6.99,2.08,1.92,5.83,2.13,7.88,0ZM128.1,22.48c.16.22.21.46.19.68-.07.82-1.15,1.48-1.82.71-.45-.51-.6-1.59.2-1.84.49-.15,1.12.03,1.42.45Z"/><path class="cls-3" d="M136.46,46.67c-3.66-.44-7.22,1.34-9.78,3.85-2.2,2.15-4.27,5.9-2.01,8.75,3.09,3.9,9.36,2.31,12.8-.15,2.55-1.83,6.44-5.68,4.55-9.12-.04-.07-.08-.15-.13-.22-1.16-1.83-3.33-2.85-5.43-3.11Z"/><path class="cls-3" d="M147.87,43.84c-1.32-.52-3.28-.44-4.18.87-.73,1.06-.5,2.45.34,3.35,1.43,1.54,4.71,1.99,5.78-.2.81-1.66-.39-3.41-1.94-4.02Z"/><path class="cls-3" d="M154.86,53.26c-1.9-.94-4.25-1.51-6.26-.54-1.14.55-1.74,1.7-1.33,2.93.31.92.96,1.67,1.65,2.34.44.43,1.87,1.25,1.92,1.91.09,1.44-2.52.81-3.24.71-2.35-.34-4.87-.45-7.13.39-1.74.65-3.39,1.87-4.02,3.67-.6,1.71-.2,3.46.81,4.93,1.59,2.32,3.74,4.62,6.35,5.81,1.27.58,2.69.88,4.08.54,1.72-.42,3.6-1.68,4.11-3.49.27-.96.06-1.98-.45-2.83-.48-.8-1.43-1.48-1.3-2.52.36-2.81,4.02-2.26,5.99-1.95,1.93.31,4.58.07,6.04-1.37,3.78-3.71-4.53-9.22-7.21-10.54Z"/><path class="cls-3" d="M171.12,83.94c-.05-1.59-1.31-2.51-2.71-2.97-1.4-.46-2.89-.64-4.23-1.29-.61-.29-1.3-.7-1.58-1.35-.1-.23-.11-.54-.06-.81.25-1.21,1.48-.24,2.07.08,2.62,1.41,6.18.86,8.05-1.54,2.51-3.22,0-7.38-3.21-8.88-3.05-1.42-6.38-.57-8.83,1.62-2.57,2.3-4.61,5.39-5.32,8.79-.72,3.41.4,7.04,3.13,9.32,1.94,1.62,4.63,2.78,7.19,2.66,2.83-.14,5.6-2.67,5.51-5.63ZM167.75,72.51c.27.04.48.17.62.34.53.62.25,1.86-.76,1.8-.68-.04-1.56-.68-1.17-1.43.23-.45.81-.78,1.31-.7Z"/><path class="cls-3" d="M271.11-.96c.27,5.05-.16,10.26-1.41,15.57-8.34,35.58-51.49,56.76-85.11,43.44-15.29-6.06-28.1-18.29-35-33.22-17.64-38.13,5.79-82.95,48.06-86.05,35.13-2.57,71.56,24.9,73.46,60.26Z"/><path class="cls-4" d="M248.28,16.71c-.47,12.05-9.29,24.46-21.11,27.64-8.88,2.39-18.25-.12-24.41-6.87-13.02-14.27-10-39.51,9.36-46.18,18.07-6.22,36.92,5.77,36.16,25.41Z"/><path class="cls-3" d="M-4.84,74.75c-2.05.53-4.2,1.63-5.1,3.68-.51,1.16-.21,2.42.91,3.09.84.5,1.82.64,2.78.69.61.03,2.24-.27,2.7.19,1.01,1.03-1.38,2.26-1.99,2.65-2,1.28-3.98,2.84-5.14,4.95-.89,1.63-1.35,3.63-.65,5.41.66,1.69,2.11,2.75,3.83,3.2,2.71.72,5.85,1.05,8.6.26,1.34-.39,2.61-1.1,3.44-2.25,1.03-1.44,1.63-3.62.83-5.33-.42-.91-1.25-1.54-2.19-1.85-.88-.29-2.05-.19-2.63-1.06-1.56-2.36,1.57-4.34,3.26-5.38,1.66-1.03,3.51-2.94,3.68-4.98.44-5.27-9.45-4.03-12.35-3.27Z"/><path class="cls-3" d="M27.52,87.36c-1.07-1.17-2.63-1.04-3.99-.48-1.36.57-2.6,1.4-4.05,1.78-.65.17-1.44.32-2.08,0-.23-.11-.44-.33-.57-.58-.6-1.08.96-1.15,1.62-1.29,2.91-.65,5.24-3.39,5.09-6.42-.2-4.08-4.82-5.59-8.23-4.62-3.24.92-5.2,3.74-5.63,6.99-.44,3.42.03,7.09,1.71,10.13,1.69,3.05,4.91,5.07,8.46,5.02,2.53-.04,5.32-.92,7.18-2.68,2.05-1.95,2.49-5.68.49-7.86ZM17.49,80.91c.23-.14.47-.18.69-.15.81.12,1.4,1.24.6,1.86-.54.41-1.63.5-1.83-.32-.12-.49.1-1.12.54-1.39Z"/><path class="cls-3" d="M42.17,74.09c-.67,3.63.88,7.29,3.22,10,2.01,2.33,5.62,4.63,8.6,2.56,4.09-2.84,2.9-9.19.66-12.78-1.66-2.66-5.26-6.79-8.82-5.11-.08.04-.15.07-.22.11-1.9,1.04-3.06,3.15-3.44,5.22Z"/><path class="cls-3" d="M40.06,62.53c-.6,1.29-.64,3.24.6,4.23,1.01.8,2.41.65,3.37-.13,1.63-1.33,2.28-4.57.16-5.78-1.6-.92-3.42.17-4.13,1.68Z"/><path class="cls-3" d="M49.9,56.14c-1.06,1.84-1.77,4.14-.93,6.22.48,1.17,1.58,1.84,2.84,1.51.94-.25,1.73-.85,2.44-1.5.45-.41,1.37-1.79,2.03-1.79,1.45,0,.65,2.56.5,3.28-.48,2.32-.76,4.83-.06,7.14.54,1.78,1.65,3.5,3.41,4.25,1.67.71,3.44.41,4.97-.5,2.41-1.44,4.84-3.44,6.2-5.97.66-1.23,1.04-2.63.8-4.03-.31-1.74-1.45-3.7-3.22-4.32-.94-.33-1.97-.18-2.85.27-.83.42-1.57,1.33-2.59,1.14-2.78-.53-2-4.16-1.56-6.1.43-1.91.36-4.56-.98-6.12-3.46-4-9.49,3.93-10.98,6.53Z"/><path class="cls-3" d="M81.55,41.85c-1.59-.05-2.59,1.15-3.13,2.52-.55,1.37-.82,2.84-1.56,4.14-.33.59-.78,1.26-1.45,1.49-.24.09-.54.08-.81,0-1.19-.33-.14-1.49.21-2.06,1.57-2.53,1.24-6.11-1.03-8.13-3.05-2.71-7.37-.47-9.06,2.65-1.61,2.96-.97,6.33,1.06,8.91,2.13,2.71,5.08,4.94,8.43,5.86,3.36.93,7.06.04,9.5-2.53,1.74-1.83,3.07-4.44,3.1-7.01.04-2.83-2.31-5.76-5.27-5.85ZM69.93,44.5c.06-.27.2-.46.38-.6.66-.49,1.87-.13,1.75.87-.08.67-.78,1.52-1.51,1.08-.43-.26-.73-.85-.62-1.35Z"/><path class="cls-3" d="M82.32,22.09c2.12,3.02,5.82,4.47,9.4,4.7,3.07.19,7.24-.77,7.85-4.36.83-4.91-4.54-8.5-8.67-9.41-3.07-.68-8.53-.99-9.82,2.72-.03.08-.05.16-.07.24-.59,2.08.11,4.39,1.32,6.12Z"/><path class="cls-3" d="M72.58,15.51c.5,1.33,1.87,2.73,3.44,2.53,1.28-.16,2.15-1.26,2.26-2.5.19-2.1-1.67-4.83-4.02-4.16-1.78.51-2.27,2.57-1.69,4.13Z"/><path class="cls-3" d="M74.9,4.01c.58,2.04,1.72,4.17,3.79,5.02,1.17.48,2.43.16,3.07-.97.48-.85.6-1.83.63-2.79.02-.61-.32-2.23.14-2.7,1.01-1.04,2.29,1.33,2.69,1.94,1.32,1.97,2.92,3.92,5.06,5.04,1.64.86,3.66,1.27,5.42.54,1.67-.7,2.7-2.17,3.12-3.9.66-2.73.93-5.87.08-8.61-.42-1.34-1.15-2.59-2.32-3.39-1.46-1-3.65-1.55-5.34-.72-.9.44-1.51,1.28-1.81,2.22-.28.89-.14,2.05-1,2.65-2.32,1.61-4.37-1.48-5.45-3.15-1.06-1.64-3.01-3.45-5.06-3.58-5.28-.33-3.83,9.53-3.01,12.41Z"/><path class="cls-3" d="M64.08-.96c.27,5.05-.16,10.26-1.41,15.57C54.34,50.18,11.19,71.37-22.43,58.05c-15.29-6.06-28.1-18.29-35-33.22C-75.07-13.3-51.64-58.13-9.38-61.22,25.75-63.8,62.19-36.32,64.08-.96Z"/><path class="cls-4" d="M41.25,16.71c-.47,12.05-9.29,24.46-21.11,27.64-8.88,2.39-18.25-.12-24.41-6.87C-17.3,23.21-14.27-2.03,5.09-8.7c18.07-6.22,36.92,5.77,36.16,25.41Z"/></g></svg>