<?xml version="1.0" encoding="UTF-8"?>
<svg width="1200pt" height="1200pt" version="1.1" viewBox="0 0 1200 1200" xmlns="http://www.w3.org/2000/svg">
 <path d="m310.01 1118.2c-26.375 21.191-63.035 34.008-99.539 34.008-89.41 0-162.65-72.406-162.65-162.66s72.828-162.65 162.65-162.65 162.65 72.828 162.65 162.65c0 51.863-24.324 98.594-63.109 128.64zm-200.9-50.242c10.176-26.207 35.629-44.34 64.523-44.34h73.691c28.906 0 54.359 18.133 64.523 44.34 39.492-50.988 34.824-123.43-10.754-169.02-50.051-50.039-131.18-50.039-181.22 0-45.574 45.59-50.258 118.02-10.766 169.02zm101.36-185.14c-36.371 0-65.867 29.496-65.867 65.867s29.496 65.867 65.867 65.867 65.879-29.484 65.879-65.867-29.508-65.867-65.879-65.867zm99.539-543.7c-26.375 21.191-63.035 34.008-99.539 34.008-89.41 0-162.65-72.406-162.65-162.65s72.816-162.66 162.65-162.66 162.65 72.828 162.65 162.65c0 51.863-24.324 98.578-63.109 128.64zm-200.9-50.242c10.176-26.195 35.629-44.34 64.523-44.34h73.691c28.906 0 54.359 18.133 64.523 44.328 39.492-50.988 34.824-123.42-10.754-169.01-50.051-50.039-131.18-50.039-181.22 0-45.574 45.59-50.258 118.02-10.766 169.01zm101.36-185.12c-36.371 0-65.867 29.496-65.867 65.879 0 36.383 29.496 65.867 65.867 65.867s65.879-29.484 65.879-65.867c0-36.383-29.508-65.879-65.879-65.879zm779.07-55.934c89.832 0 162.65 72.828 162.65 162.65 0 89.82-73.223 162.65-162.65 162.65s-162.64-72.406-162.64-162.65c0-90.238 72.816-162.65 162.64-162.65zm-101.36 241.05c10.152-26.195 35.617-44.34 64.512-44.34h73.68c28.906 0 54.359 18.133 64.512 44.34 39.492-50.988 34.836-123.42-10.738-169.01-50.039-50.039-131.18-50.039-181.22 0-45.59 45.59-50.242 118.02-10.754 169.01zm101.36-185.12c-36.371 0-65.867 29.496-65.867 65.879 0 36.383 29.496 65.867 65.867 65.867 36.371 0 65.867-29.484 65.867-65.867 0-36.383-29.496-65.879-65.867-65.879zm0 723.14c89.832 0 162.65 72.828 162.65 162.65s-73.223 162.66-162.65 162.66-162.64-72.406-162.64-162.66 72.816-162.65 162.64-162.65zm-101.36 241.05c10.152-26.207 35.617-44.34 64.512-44.34h73.68c28.906 0 54.359 18.133 64.512 44.34 39.492-50.988 34.836-123.43-10.738-169.02-50.039-50.039-131.18-50.039-181.22 0-45.59 45.59-50.242 118.02-10.754 169.02zm101.36-185.14c-36.371 0-65.867 29.496-65.867 65.867 0 36.371 29.496 65.867 65.867 65.867 36.371 0 65.867-29.484 65.867-65.867 0-36.383-29.496-65.867-65.867-65.867zm-155.94-547.19-45.684 45.672-0.64844-11.676c-0.52734-9.793-8.9141-17.316-18.707-16.766-9.793 0.53906-17.305 8.9141-16.766 18.719l2.7852 50.258c0.22656 10.402 7.6094 17.785 18.012 18.012l50.258 2.7969c9.793 0.52734 18.18-6.9727 18.719-16.766 0.53906-9.8047-6.9727-18.18-16.766-18.719l-11.676-0.64844 45.684-45.684c6.9609-6.9492 6.9609-18.227 0-25.188s-18.227-6.9609-25.188 0zm-459.47 457.23 11.676 0.64844-45.684 45.684c-6.9492 6.9492-6.9492 18.238 0 25.188 6.9609 6.9492 18.227 6.9492 25.188 0l45.684-45.684 0.64844 11.676c0.53906 9.8047 8.9141 17.316 18.719 16.777 9.8047-0.53906 17.305-8.9141 16.766-18.719l-2.7852-50.258c-0.23828-10.402-7.6094-17.773-17.988-18l-50.27-2.7969c-9.8047-0.52734-18.18 6.9727-18.719 16.777-0.53906 9.793 6.9609 18.18 16.766 18.707zm-3.1094-346.29 50.27-2.7969c10.391-0.23828 17.762-7.6094 17.988-18l2.7969-50.27c0.53906-9.8047-6.9727-18.18-16.777-18.719-9.793-0.52734-18.168 6.9727-18.719 16.777l-0.63672 11.676-45.684-45.684c-6.9609-6.9492-18.238-6.9492-25.188 0s-6.9609 18.227 0 25.188l45.684 45.684-11.676 0.64844c-9.8047 0.53906-17.316 8.9141-16.766 18.707 0.52734 9.8047 8.9141 17.316 18.719 16.777zm457.96 305.75-50.258 2.7852c-10.402 0.23828-17.785 7.6094-18.012 18.012l-2.7852 50.258c-0.52734 9.793 6.9727 18.18 16.766 18.719 9.8047 0.52734 18.18-6.9727 18.719-16.777l0.64844-11.688 45.684 45.684c6.9609 6.9609 18.227 6.9609 25.176 0 6.9609-6.9492 6.9609-18.227 0-25.188l-45.684-45.684 11.688-0.64844c9.8047-0.52734 17.316-8.9141 16.766-18.719-0.53906-9.793-8.9141-17.316-18.719-16.766zm-144.13-11.426-3.8633-1.6211h-161.98c-8.7461 0-14.449 23.137-6.2773 36.047 1.7656 2.7617 3.9961 4.4766 6.2773 4.4766h161.98c10.465 0 14.605-29.734 3.8633-38.902zm-103.21-285.49c5.832-10.141 18.77-13.645 28.934-7.8125 10.152 5.832 13.645 18.781 7.8125 28.922l-29.566 51.203h59.137c15.539 0 27.898 17.16 17.363 33.59l-46.922 81.277c-5.832 10.152-18.793 13.656-28.934 7.8125-10.152-5.832-13.645-18.781-7.8125-28.934l29.555-51.191-59.125-0.097656c-16.105 0.011719-26.543-17.555-18.371-31.754l47.941-83.039zm102.41 252.05c-1.0078-0.058594-2.0273-0.097656-3.0586-0.097656h-161.98c-0.875 0-1.7539 0.023437-2.6172 0.070312-34.273-65.676-78.086-83.387-78.086-166.32 0-89.426 72.371-161.55 161.69-161.55 89.316 0 161.69 72.121 161.69 161.55 0 49.32-20.293 78.562-43.152 111.5-11.461 16.535-23.508 33.887-34.488 54.852zm-152.33 104.27v5.3867c0 70.105 136.57 70.105 136.57 0v-5.3867z" fill="#674fa3" fill-rule="evenodd"/>
</svg>
