<?xml version="1.0" encoding="UTF-8"?>
<svg width="1200pt" height="1200pt" version="1.1" viewBox="0 0 1200 1200" xmlns="http://www.w3.org/2000/svg">
 <path d="m301.55 680.53v30.234c0 10.688 8.7656 19.453 19.453 19.453h66.469c24.844 0 45 20.156 45 45v37.312c0 24.844-20.156 45-45 45h-12.938v35.531c0 7.0781-5.7656 12.844-12.844 12.844s-12.844-5.7656-12.844-12.844v-35.531h-60.141c-7.0781 0-12.844-5.7656-12.844-12.844s5.7656-12.844 12.844-12.844h98.625c10.688 0 19.453-8.625 19.453-19.453v-37.312c0-10.688-8.625-19.453-19.453-19.453h-66.469c-24.844 0-45-20.156-45-45v-30.234c0-24.844 20.156-45 45-45h27.938l0.046875-35.391c0-7.0781 5.7656-12.844 12.844-12.844s12.844 5.7656 12.844 12.844v35.531h45.141c7.0781 0 12.844 5.7656 12.844 12.844s-5.7656 12.844-12.844 12.844h-98.625c-10.734-0.14062-19.5 8.625-19.5 19.312zm760.69-25.219c0.60938 8.2969 0.84375 15.703 0.84375 22.922 0 121.69-68.156 227.76-168.24 282-0.23438 0.14062-0.46875 0.375-0.70312 0.46875-0.70312 0.46875-1.5469 0.84375-2.3906 1.0781-44.625 23.531-95.391 36.938-149.29 36.938-62.062 0-121.92-17.625-173.63-51.141-48.609 33.938-120.37 51.141-214.55 51.141-158.63 0-253.31-48.375-281.63-143.86-17.625-59.531-7.4531-136.22 30.469-227.86 20.062-48.469 40.922-87.703 63.703-120 20.859-29.531 43.781-53.391 68.156-70.922-0.375-2.1562-0.60938-4.3125-0.60938-6.4688v-16.453c0-2.625 0.23438-5.1562 0.84375-7.6875-14.625-13.312-26.625-28.547-35.766-45.469-16.453-30.234-20.391-59.859-20.766-79.312-0.14062-7.4531 1.3125-14.625 4.4531-21.141 3-6.4688 7.5469-12.234 13.453-16.922 6-4.6875 12.609-7.9219 19.688-9.375 6.9375-1.4531 14.297-1.3125 21.469 0.46875 6 1.5469 12 3.9375 18.141 7.2188 0.84375-5.0625 2.625-9.8438 5.0625-14.297 3.375-6 7.9219-11.062 13.547-15.141 5.3906-3.9375 11.625-6.7031 18.375-8.0625 6.7031-1.3125 13.453-1.0781 20.156 0.60938 13.312 3.375 25.922 5.0625 37.547 5.0625h0.9375c11.156-0.14063 21.375-1.7812 30.141-5.0625 6.8438-2.5312 13.922-3.375 21.141-2.625 7.2188 0.84375 14.062 3.375 20.156 7.4531 6.1406 3.9375 11.156 9.1406 14.859 15.375 3.6094 6.2344 5.625 13.219 6.1406 20.531 0.23438 4.2188 0.375 8.3906 0 12.844 6.6094-1.6875 12.844-2.625 18.703-3 12-0.60937 23.625 3.375 32.859 11.062 9.375 7.9219 15.141 18.844 16.547 30.703 2.1562 17.297 2.625 43.312-7.5469 68.297-6.8438 16.922-17.391 30.703-31.453 41.062 0.46875 2.3906 0.70312 4.7812 0.70312 7.3125v16.453c0 2.1562-0.23438 4.3125-0.60938 6.4688 10.781 7.7812 21.234 16.781 31.453 26.859 51.609-57 121.22-93.375 197.53-102.94 3.6094-0.46875 7.3125 0.70313 10.078 3.1406 2.7656 2.3906 4.3125 5.8594 4.3125 9.6094v270.61h332.63c7.0781 0.1875 12.609 5.3438 13.078 12.047zm-613.78-227.16v-13.688h-188.39v13.688zm-193.22-39.234h197.06c13.078-7.7812 22.781-19.078 28.688-33.703 8.5312-20.859 7.3125-43.922 5.7656-55.688-0.60938-5.5312-3.375-10.547-7.6875-14.156-4.2188-3.4688-9.6094-5.2969-15.141-5.0625-7.7812 0.375-17.156 2.625-27.609 6.8438-1.0781 0.375-2.0625 0.84375-3.1406 1.3125-4.4531 1.9219-9.7031 1.0781-13.312-2.0625-3.7031-3.1406-5.3906-8.0625-4.2188-12.703 0.60938-2.625 1.0781-4.6875 1.4531-6.4688 1.3125-7.2188 1.7812-14.062 1.3125-20.531-0.23438-3.4688-1.2188-6.6094-2.7656-9.375-1.5469-2.625-3.8438-5.0625-6.7031-6.8438-3-1.9219-6-3.1406-9.1406-3.4688-3.1406-0.375-6.2344 0.14062-9.4688 1.2188-11.531 4.2188-24.469 6.375-38.625 6.4688-14.156 0.14062-29.156-1.7812-45-5.7656-3.1406-0.84375-6.1406-0.9375-9.1406-0.375-3 0.60938-5.7656 1.7812-8.1562 3.6094-2.7656 1.9219-4.6875 4.2188-6.2344 6.8438-1.4531 2.625-2.2969 5.5312-2.5312 8.625-0.375 5.3906-0.375 10.547 0 15.703 0.46875 5.1562-2.2969 10.078-6.9375 12.469-4.6875 2.3906-10.219 1.6875-14.156-1.6875-0.70312-0.60938-1.4531-1.2188-2.0625-1.6875-9.2344-7.2188-18-11.859-26.156-14.062-1.9219-0.46875-3.7031-0.70312-5.5312-0.70312-1.4531 0-2.8594 0.14062-4.3125 0.46875-3.2344 0.70312-6.2344 2.1562-9.1406 4.3125-2.7656 2.1562-4.7812 4.7812-6.2344 7.7812s-2.0625 6.2344-2.0625 9.7031c0.375 16.688 3.7031 41.859 17.625 67.688 8.7188 15.516 19.875 29.297 33.562 41.297zm99 584.29c145.78 0 232.31-42.234 257.16-125.53 15.938-53.766 6-124.69-29.625-210.84-19.312-46.688-39.234-84.234-60.938-114.94-20.531-29.062-42.844-51.844-66.609-68.062h-199.82c-23.625 16.219-46.078 39-66.609 68.062-21.703 30.703-41.625 68.297-60.938 114.94-35.625 86.062-45.609 157.08-29.625 210.84 24.562 83.25 111.09 125.53 257.02 125.53zm388.22 0c45.234 0 88.078-10.219 126.47-28.547l-175.78-281.68c0-0.14062-0.14062-0.14062-0.14062-0.23438-0.14062-0.23438-0.23438-0.46875-0.375-0.70312-0.14062-0.14062-0.14062-0.375-0.23438-0.46875-0.14062-0.23438-0.23438-0.46875-0.23438-0.70312-0.14062-0.14062-0.14062-0.375-0.23438-0.46875-0.14062-0.23438-0.14062-0.375-0.23438-0.60938 0-0.23438-0.14062-0.375-0.14062-0.60938s-0.14062-0.375-0.14062-0.60938-0.14062-0.46875-0.14062-0.70312v-1.5469l0.046875-268.74c-65.391 11.391-124.55 44.531-168.94 94.312 6.6094 7.7812 13.078 16.219 19.453 25.078 22.781 32.297 43.688 71.531 63.703 120 37.922 91.688 48.234 168.37 30.609 227.86-8.8594 29.859-24.234 55.078-46.078 75.703 45.703 27.984 98.156 42.656 152.39 42.656zm295.08-294.98c0-3 0-6-0.14062-9.2344h-310.31l164.53 263.63c87.234-51.328 145.92-146.16 145.92-254.39zm94.781-82.172c-2.3906 2.625-5.7656 4.0781-9.375 4.0781h-345.47c-7.0781 0-12.844-5.7656-12.844-12.844v-283.45c0-6.4688 4.7812-11.859 11.156-12.703 13.312-1.6875 26.859-2.5312 40.078-2.5312 81.609 0 159.37 30.703 219 86.531 59.297 55.453 95.062 130.55 100.78 211.31 0.42187 3.4688-0.9375 6.9375-3.3281 9.6094zm-23.391-21.609c-17.297-147-143.39-260.16-292.92-260.16-8.5312 0-17.062 0.375-25.688 1.0781v259.08z" fill="#674fa3"/>
</svg>
