<?xml version="1.0" encoding="UTF-8"?>
<svg width="1200pt" height="1200pt" version="1.1" viewBox="0 0 1200 1200" xmlns="http://www.w3.org/2000/svg">
 <path d="m950.02 200.02h-50.016v-50.016c0-27.656-22.359-50.016-50.016-50.016s-50.016 22.359-50.016 50.016v50.016h-150l0.046875-50.016c0-27.656-22.406-50.016-50.016-50.016s-50.016 22.359-50.016 50.016v50.016h-150v-50.016c0-27.656-22.406-50.016-50.016-50.016-27.562 0-49.969 22.359-49.969 50.016v50.016h-50.016c-82.688 0-150 67.266-150 150v600c0 82.734 67.266 150 150 150h699.98c82.734 0 150-67.266 150-150l0.046875-600c0-82.734-67.312-150-150-150zm49.969 750c0 27.609-22.406 50.016-50.016 50.016l-699.98-0.046875c-27.562 0-50.016-22.406-50.016-50.016v-350.02h800.02zm0-450h-799.97v-150c0-27.609 22.453-50.016 50.016-50.016h50.016v50.016c0 27.656 22.406 50.016 50.016 50.016s50.016-22.359 50.016-50.016l-0.09375-50.016h150v50.016c0 27.656 22.406 50.016 50.016 50.016s50.016-22.359 50.016-50.016v-50.016h150v50.016c0 27.656 22.359 50.016 50.016 50.016s50.016-22.359 50.016-50.016l-0.046875-50.016h50.016c27.609 0 50.016 22.406 50.016 50.016z" fill="#674fa3"/>
</svg>
