<?xml version="1.0" encoding="UTF-8"?>
<svg width="1200pt" height="1200pt" version="1.1" viewBox="0 0 1200 1200" xmlns="http://www.w3.org/2000/svg">
 <path d="m324.37 581.26h538.13c61.875 0 112.5-50.625 112.5-112.5v-318.74c0-61.875-50.625-112.5-112.5-112.5h-675c-61.875 0-112.5 50.625-112.5 112.5v543.74c0 15 9.375 28.125 22.5 33.75 5.625 3.75 9.375 3.75 15 3.75 9.375 0 18.75-3.75 26.25-11.25l106.88-106.88c20.625-20.625 48.75-31.875 78.75-31.875zm-174.37 22.5v-453.74c0-20.625 16.875-37.5 37.5-37.5h675c20.625 0 37.5 16.875 37.5 37.5v318.74c0 20.625-16.875 37.5-37.5 37.5h-538.13c-50.625 0-97.5 18.75-133.13 54.375z" fill="#674fa3"/>
 <path d="m1102.5 472.5c-15-5.625-30-1.875-41.25 7.5l-106.88 106.88c-20.625 20.625-50.625 33.75-78.75 33.75h-538.13c-61.875 0-112.5 50.625-112.5 112.5v318.74c0 61.875 50.625 112.5 112.5 112.5h675c61.875 0 112.5-50.625 112.5-112.5v-545.63c0-15-9.375-28.125-22.5-33.75zm-52.5 577.5c0 20.625-16.875 37.5-37.5 37.5h-675c-20.625 0-37.5-16.875-37.5-37.5v-318.74c0-20.625 16.875-37.5 37.5-37.5h538.13c50.625 0 97.5-18.75 133.13-54.375l41.25-41.25z" fill="#674fa3"/>
 <path d="m423.74 457.5c7.5 7.5 16.875 11.25 26.25 11.25s18.75-3.75 26.25-11.25l241.87-241.87c15-15 15-37.5 0-52.5s-37.5-15-52.5 0l-213.74 213.74-67.5-67.5c-15-15-37.5-15-52.5 0s-15 37.5 0 52.5z" fill="#674fa3"/>
 <path d="m795 770.63c-15-15-37.5-15-52.5 0l-67.5 67.5-65.625-65.625c-15-15-37.5-15-52.5 0s-15 37.5 0 52.5l65.625 65.625-67.5 65.625c-15 15-15 37.5 0 52.5 7.5 7.5 16.875 11.25 26.25 11.25s18.75-3.75 26.25-11.25l65.625-65.625 65.625 65.625c7.5 7.5 16.875 11.25 26.25 11.25s18.75-3.75 26.25-11.25c15-15 15-37.5 0-52.5l-65.625-65.625 65.625-65.625c16.875-15 16.875-39.375 3.75-54.375z" fill="#674fa3"/>
</svg>
