<?xml version="1.0" encoding="UTF-8"?>
<svg width="1200pt" height="1200pt" version="1.1" viewBox="0 0 1200 1200" xmlns="http://www.w3.org/2000/svg">
 <path d="m391.77 499.41h414.71c10.59 0 17.648-7.0586 17.648-17.648v-91.766c0-68.824-56.469-123.53-123.53-123.53h-44.117c44.117-21.176 75.883-65.293 75.883-118.23 0-72.352-58.234-130.59-130.59-130.59-72.352 0-130.59 58.234-130.59 130.59 0 51.176 30 97.059 75.883 118.23h-47.648c-68.824 0-123.53 56.469-123.53 123.53v91.766c-1.7617 8.8281 7.0625 17.648 15.887 17.648zm114.7-351.18c0-52.941 42.352-95.293 95.293-95.293 52.941 0 95.293 42.352 95.293 95.293s-42.352 95.293-95.293 95.293c-52.938 0.003906-95.293-44.117-95.293-95.293zm-97.059 241.77c0-49.41 40.59-88.234 88.234-88.234h202.94c49.41 0 88.234 40.59 88.234 88.234v74.117h-379.41z" fill="#674fa3"/>
 <path d="m600 540c-10.59 0-17.648 7.0586-17.648 17.648v123.53l-26.469-26.469c-7.0586-7.0586-17.648-7.0586-24.707 0-7.0586 7.0586-7.0586 17.648 0 24.707l56.469 56.469c3.5312 3.5312 8.8242 5.293 12.352 5.293 5.293 0 8.8242-1.7656 12.352-5.293l56.469-56.469c7.0586-7.0586 7.0586-17.648 0-24.707-7.0586-7.0586-17.648-7.0586-24.707 0l-26.461 24.699v-123.53c0-8.8203-8.8242-15.879-17.648-15.879z" fill="#674fa3"/>
 <path d="m264.71 744.71c3.5312 3.5312 8.8242 5.293 12.352 5.293h81.176c10.59 0 17.648-7.0586 17.648-17.648 0-10.59-7.0586-17.648-17.648-17.648h-37.059l107.65-107.65c7.0586-7.0586 7.0586-17.648 0-24.707-7.0586-7.0586-17.648-7.0586-24.707 0l-107.65 107.65v-37.055c0-10.59-7.0586-17.648-17.648-17.648-10.59 0-17.648 7.0586-17.648 17.648v79.41c-1.7617 3.5312 0.003906 10.59 3.5352 12.355z" fill="#674fa3"/>
 <path d="m797.65 580.59c-7.0586-7.0586-17.648-7.0586-24.707 0s-7.0586 17.648 0 24.707l107.65 107.65h-37.059c-10.59 0-17.648 7.0586-17.648 17.648s7.0586 17.648 17.648 17.648h81.176c5.293 0 8.8242-1.7656 12.352-5.293 3.5312-3.5312 5.293-7.0586 5.293-12.352v-77.656c0-10.59-7.0586-17.648-17.648-17.648s-17.648 7.0586-17.648 17.648v37.059z" fill="#674fa3"/>
 <path d="m264.71 986.47h-1.7656c30-19.41 51.176-52.941 51.176-91.766 0-60-49.41-109.41-109.41-109.41s-109.41 49.41-109.41 109.41c0 38.824 21.176 72.352 51.176 91.766h-5.2969c-68.824 0-123.53 56.469-123.53 123.53l0.003907 54.707c0 10.59 7.0586 17.648 17.648 17.648h335.29c10.59 0 17.648-7.0586 17.648-17.648v-54.707c-0.003906-67.059-54.707-123.53-123.53-123.53zm-60-165.88c40.59 0 74.117 33.531 74.117 74.117 0 40.59-33.531 74.117-74.117 74.117-40.59 0-74.117-33.531-74.117-74.117 0-40.59 33.527-74.117 74.117-74.117zm148.23 326.47h-300v-37.059c0-49.41 40.59-88.234 88.234-88.234h123.53c49.41 0 88.234 40.59 88.234 88.234z" fill="#674fa3"/>
 <path d="m661.77 986.47h-1.7656c30-19.41 51.176-52.941 51.176-91.766 0-60-49.41-109.41-109.41-109.41s-109.41 49.41-109.41 109.41c0 38.824 21.176 72.352 51.176 91.766h-5.293c-68.824 0-123.53 56.469-123.53 123.53v54.707c0 10.59 7.0586 17.648 17.648 17.648h335.29c10.59 0 17.648-7.0586 17.648-17.648v-54.707c-0.003906-67.059-54.707-123.53-123.53-123.53zm-60-165.88c40.59 0 74.117 33.531 74.117 74.117 0 40.59-33.531 74.117-74.117 74.117-40.59 0-74.117-33.531-74.117-74.117 0-40.59 33.527-74.117 74.117-74.117zm148.23 326.47h-300v-37.059c0-49.41 40.59-88.234 88.234-88.234h123.53c49.41 0 88.234 40.59 88.234 88.234z" fill="#674fa3"/>
 <path d="m1058.8 986.47h-1.7656c30-19.41 51.176-52.941 51.176-91.766 0-60-49.41-109.41-109.41-109.41s-109.41 49.41-109.41 109.41c0 38.824 21.176 72.352 51.176 91.766h-5.2969c-68.824 0-123.53 56.469-123.53 123.53l0.003906 54.707c0 10.59 7.0586 17.648 17.648 17.648h335.29c10.59 0 17.648-7.0586 17.648-17.648v-54.707c-0.003907-67.059-56.473-123.53-123.53-123.53zm-60-165.88c40.59 0 74.117 33.531 74.117 74.117 0 40.59-33.531 74.117-74.117 74.117-40.59 0-74.117-33.531-74.117-74.117 0-40.59 31.762-74.117 74.117-74.117zm148.23 326.47h-300v-37.059c0-49.41 40.59-88.234 88.234-88.234h123.53c49.41 0 88.234 40.59 88.234 88.234z" fill="#674fa3"/>
</svg>
