<?xml version="1.0" encoding="UTF-8"?>
<svg width="1200pt" height="1200pt" version="1.1" viewBox="0 0 1200 1200" xmlns="http://www.w3.org/2000/svg">
 <path d="m844.69 599.95h-676.64v40.125h676.64zm59.625-361.18 21.328-5.7188c3.8906-1.0312 7.0312-3.6094 8.9062-6.8906h0.046875c1.875-3.2344 2.4844-7.2188 1.4531-11.156l-29.859-111.47c-1.0781-3.9375-3.6094-7.0781-6.7969-8.9062-3.2812-1.875-7.2656-2.5312-11.203-1.4531l-21.328 5.7188c-3.9375 1.0781-7.0781 3.6094-8.9062 6.7969-1.875 3.2812-2.5312 7.2656-1.4531 11.203l29.859 111.47c0.98438 3.7031 3.2812 6.7031 6.2344 8.5781 0.23438 0.09375 0.42188 0.23438 0.65625 0.32812 3.2344 1.875 7.2188 2.5312 11.156 1.4531zm-272.06-3.4688 49.641-13.312c8.7188-2.3438 17.672 2.8594 20.016 11.578s-2.8594 17.672-11.578 20.016l-101.44 27.188c-2.2031 0.60938-3.9844 1.9219-5.1094 3.6562l-0.32812 0.5625c-1.125 1.9688-1.5469 4.4062-0.89062 6.7969 0.60938 2.2031 1.9219 3.9844 3.6562 5.1094l0.5625 0.32812c1.9688 1.125 4.4062 1.5469 6.7969 0.89062l84.047-22.547c2.3906-0.65625 5.0156-0.75 7.5938-0.1875 47.391 10.172 84.094-0.98438 110.06-33.422 2.0156-2.6719 4.9219-4.7812 8.3906-5.8125l47.109-14.062-20.109-75.094-25.406 6.7969v-0.046875c-3.0938 0.84375-6.4688 0.75-9.7031-0.42188l-21.328-7.6406-193.69 51.891-3.7969 5.625 55.594 32.062zm-13.828 89.953-104.86 181.6-130.78-75.516 130.97-226.82 30.891 17.812c0.42187 0.28125 0.84375 0.51562 1.2656 0.75l41.812 24.141-7.3125 1.9688c-10.594 2.8125-19.125 9.6094-24.562 18.328-0.23437 0.375-0.46875 0.75-0.70312 1.125-5.3438 9.2344-7.1719 20.531-4.2188 31.594 2.8125 10.594 9.6094 19.125 18.328 24.562l1.125 0.70312c9.2344 5.3438 20.531 7.1719 31.594 4.2188l16.453-4.4062zm243.94-72.562-44.625 13.312c-33.375 39.234-78.516 53.297-135.42 42.094l-19.312 5.1562-129.32 224.06c-4.5469 7.7812-14.531 10.453-22.312 5.9531l-159.05-91.828c-7.7812-4.5469-10.453-14.531-5.9531-22.312l147.28-255.1c4.5469-7.7812 14.531-10.453 22.312-5.9531 0.28125 0.1875 0.5625 0.32812 0.84375 0.51562l31.594 18.234 8.4375-12.562c2.2969-3.4219 5.6719-5.7188 9.3281-6.7031v-0.046874l204.42-54.797c3.75-1.0312 7.5938-0.60937 10.875 0.84375l20.156 7.2656 21.656-5.8125c-0.375-9.0938 1.9219-17.953 6.3281-25.641 6.0938-10.547 16.172-18.797 28.734-22.172l21.328-5.7188c12.562-3.375 25.359-1.2656 35.906 4.7812 10.547 6.0938 18.797 16.172 22.172 28.734l29.859 111.47c3.375 12.562 1.2656 25.359-4.7812 35.906l-0.046875 0.046876h0.046875c-6.0938 10.547-16.125 18.703-28.734 22.125l-21.328 5.7188c-12.609 3.375-25.406 1.3125-35.953-4.7812-0.375-0.23438-0.75-0.42188-1.0781-0.70313-5.1562-3.1875-9.7031-7.3125-13.359-12.188zm-197.72 505.64h-316.55c-1.0312 0-1.9219 0.42188-2.625 1.125s-1.125 1.6406-1.125 2.625v69.094c0 1.0312 0.42188 1.9219 1.125 2.625s1.6406 1.125 2.625 1.125h316.55c1.0312 0 1.9219-0.42188 2.625-1.125s1.125-1.6406 1.125-2.625v-69.094c0-1.0312-0.42188-1.9219-1.125-2.625s-1.6406-1.125-2.625-1.125zm-316.55-32.719h316.55c10.031 0 19.172 4.125 25.781 10.688 6.6094 6.6094 10.688 15.75 10.688 25.781v69.094c0 10.031-4.125 19.172-10.688 25.781-6.6094 6.6094-15.75 10.688-25.781 10.688h-316.55c-10.031 0-19.172-4.125-25.781-10.688-6.6094-6.6094-10.688-15.75-10.688-25.781v-69.094c0-10.031 4.125-19.172 10.688-25.781 6.6094-6.6094 15.75-10.688 25.781-10.688zm646.74 165.47c-22.922-22.922-54.562-37.078-89.578-37.078-34.969 0-66.656 14.156-89.578 37.078s-37.078 54.609-37.078 89.578 14.156 66.656 37.078 89.578 54.609 37.078 89.578 37.078 66.656-14.156 89.578-37.078 37.078-54.562 37.078-89.578c0-34.969-14.156-66.656-37.078-89.578zm-216.79 185.58-558.52-0.046875v-403.82h573.71v194.48l-0.60938 0.60938c-28.828 28.828-46.688 68.672-46.688 112.69 0 36.047 11.953 69.328 32.156 96zm127.22-255.37c44.016 0 83.859 17.859 112.69 46.688s46.688 68.672 46.688 112.69-17.859 83.859-46.688 112.69-68.672 46.688-112.69 46.688c-35.203 0-67.734-11.391-94.078-30.703-0.5625 0.046875-1.0781 0.09375-1.6406 0.09375l-606.37-0.09375c-9.0469 0-16.359-7.3125-16.359-16.359v-420.19h-35.109c-9.0469 0-16.359-7.3125-16.359-16.359v-72.844c0-9.0469 7.3125-16.359 16.359-16.359h709.36c9.0469 0 16.359 7.3125 16.359 16.359v72.844c0 9.0469-7.3125 16.359-16.359 16.359h-35.109v169.55c23.344-13.453 50.438-21.141 79.359-21.141zm-82.031 171.94c-6.375-6.375-6.375-16.734 0-23.156 6.375-6.375 16.734-6.375 23.156 0l47.953 47.953 67.5-109.45c4.7344-7.6406 14.766-10.031 22.453-5.2969 7.6406 4.7344 10.031 14.766 5.2969 22.453l-77.578 125.81c-0.75 1.5469-1.7812 2.9531-3.0469 4.2188-6.375 6.375-16.734 6.375-23.156 0l-62.531-62.531zm-395.86-5.7188h157.92c9.0469 0 16.359-7.3125 16.359-16.359s-7.3125-16.359-16.359-16.359h-157.92c-9.0469 0-16.359 7.3125-16.359 16.359s7.3125 16.359 16.359 16.359z" fill="#674fa3" fill-rule="evenodd"/>
</svg>
