<?xml version="1.0" encoding="UTF-8"?>
<svg width="1200pt" height="1200pt" version="1.1" viewBox="0 0 1200 1200" xmlns="http://www.w3.org/2000/svg">
 <path d="m391.71 237.6c9.7695-14.113 71.242-14.496 121.39 9.1797 31.969 67.727 50.039 134.65 54.961 203.38-31.598 45.852-85.262 76.477-100.87 69.109-5.2812-2.4844-5.1484-15.516 0.34766-33.191l8.4258-27.121c6.8164-21.926 2.6992-31.297-7.2734-40.906l-28.824-28.117c-4.5586-4.4883-7.332-8.4258-7.8008-11.102l-0.19141-1.0781-0.38281-1.0195c-0.53906-1.4531-1.0938-5.1133 1.2461-13.391l10.895-38.746c3.8047-13.344 2.6758-23.531-14.172-39.121l-20.879-19.32c-13.586-12.539-20.219-23.746-16.895-28.535zm228.98 230.39c16.906-4.4883 24.18-13.117 24.098-15.648-5.1719-92.363-27.238-174.88-65.594-245.28-1.332-2.4258-11.629-6.4805-28.98-1.8359-13.645 3.6719-21.887 9.9727-24.289 13.066 42.145 83.242 64.152 165.13 67.199 250.14 3.1562 1.668 13.285 3.3711 27.562-0.45703zm47.426-26.375c-5.9531-86.965-26.594-165.56-61.523-233.99 30.949-40.523 81.227-82.547 136.13-113.47 60.289-33.961 116.94-49.391 155.44-42.348 28.152 5.1484 45.59 21.637 53.281 50.375l68.184 254.46c7.8008 29.09 0.74219 52.453-21.539 71.438-30.109 25.645-87 41.113-156.07 42.434-63.012 1.2109-127.31-9.5625-173.9-28.895zm84.684-194.61c0 36.77 31.129 42.707 53.855 47.039 26.641 5.0742 34.391 8.7852 34.391 23.531 0 12.625-14.711 23.281-32.125 23.281-13.812 0-26.438-6.7578-30.695-16.43-2.6758-6.0586-9.7578-8.8203-15.816-6.1445-6.0586 2.6758-8.8086 9.7578-6.1445 15.816 6.6836 15.18 22.273 26.219 40.656 29.629v15.84c0 6.625 5.375 12 12 12s12-5.375 12-12v-15.816c25.199-4.6445 44.125-23.578 44.125-46.188 0-36.828-31.152-42.77-53.891-47.102-26.617-5.0742-34.344-8.7734-34.344-23.473 0-12.625 14.711-23.281 32.125-23.281 13.547 0 25.754 6.3125 30.348 15.707 2.9141 5.9531 10.094 8.4102 16.055 5.4961 5.9531-2.9141 8.4102-10.105 5.4961-16.055-7.1172-14.531-22.117-24.84-39.91-28.066v-15.805c0-6.625-5.375-12-12-12s-12 5.375-12 12v15.816c-25.199 4.6445-44.125 23.578-44.125 46.188zm305.84 715.61c0 91.164-74.172 165.34-165.34 165.34-91.164 0-165.34-74.172-165.34-165.34 0-91.164 74.172-165.34 165.34-165.34 91.164 0 165.34 74.172 165.34 165.34zm-204.21-42.023c0-14.977 17.809-27.613 38.879-27.613 21.07 0 38.879 12.648 38.879 27.613 0 7.957 6.4453 14.398 14.398 14.398 7.957 0 14.398-6.4453 14.398-14.398 0-26.988-22.859-49.598-53.281-55.117v-19.285c0-7.957-6.4453-14.398-14.398-14.398-7.957 0-14.398 6.4453-14.398 14.398v19.297c-30.422 5.5195-53.281 28.129-53.281 55.117 0 43.969 37.57 51.035 65.016 56.207 32.184 6.0586 41.543 10.465 41.543 27.91 0 14.977-17.809 27.625-38.879 27.625s-38.879-12.648-38.879-27.625c0-7.957-6.4453-14.398-14.398-14.398-7.957 0-14.398 6.4453-14.398 14.398 0 26.988 22.859 49.598 53.281 55.117v19.285c0 7.957 6.4453 14.398 14.398 14.398 7.957 0 14.398-6.4453 14.398-14.398v-19.285c30.422-5.5195 53.281-28.129 53.281-55.117 0-43.969-37.57-51.035-65.016-56.207-32.184-6.0586-41.543-10.465-41.543-27.91zm-653.18-202.78-59.891 34.57 179.77 51.875 45.035-181.62-59.891 34.57c-3.2031 1.8477-7.0312 2.3047-10.57 1.2734-3.5508-1.043-6.5156-3.4922-8.2188-6.7812-35.352-68.328-43.57-129.21-24.422-180.98 15.133-40.906 46.789-75.238 94.379-102.47-62.746 2.2812-121.56 32.676-157.91 83.953-48.145 67.945-45.73 157.98 6.6133 247.02 1.8242 3.1094 2.3398 6.8281 1.4141 10.32-0.92578 3.4922-3.1914 6.4688-6.3242 8.2695zm356.48 273.9c0 87.203-70.945 158.15-158.15 158.15s-158.15-70.945-158.15-158.15 70.945-158.15 158.15-158.15 158.15 70.945 158.15 158.15zm-195.25-40.273c0-14.316 16.992-26.41 37.105-26.41 20.113 0 37.188 12.098 37.188 26.41 0 7.6094 6.168 13.777 13.777 13.777 7.6094 0 13.777-6.168 13.777-13.777 0-25.812-21.863-47.449-50.965-52.727v-18.457c0-7.6094-6.168-13.777-13.777-13.777s-13.777 6.168-13.777 13.777v18.457c-29.051 5.2812-50.879 26.902-50.879 52.715 0 42.047 35.914 48.816 62.148 53.762 30.758 5.7969 39.695 9.9961 39.695 26.688 0 14.316-17.027 26.41-37.188 26.41s-37.105-12.098-37.105-26.41c0-7.6094-6.168-13.777-13.777-13.777s-13.777 6.168-13.777 13.777c0 25.812 21.828 47.438 50.879 52.715v18.457c0 7.6094 6.168 13.777 13.777 13.777 7.6094 0 13.777-6.168 13.777-13.777v-18.457c29.102-5.2812 50.965-26.902 50.965-52.727 0-42.047-35.914-48.816-62.148-53.762-30.758-5.7969-39.695-9.9961-39.695-26.688zm260.03-82.668c-86.902 0-157.61-70.703-157.61-157.61 0-86.902 70.703-157.61 157.61-157.61 86.902 0 157.61 70.703 157.61 157.61 0 86.902-70.703 157.61-157.61 157.61zm-37.055-197.73c0-14.27 16.969-26.328 37.055-26.328 20.09 0 37.055 12.059 37.055 26.328 0 7.5859 6.1445 13.727 13.727 13.727 7.5859 0 13.727-6.1445 13.727-13.727 0-25.727-21.793-47.281-50.785-52.547v-18.383c0-7.5859-6.1445-13.727-13.727-13.727-7.5859 0-13.727 6.1445-13.727 13.727v18.383c-28.992 5.2578-50.785 26.82-50.785 52.547 0 41.902 35.82 48.66 61.969 53.578 30.684 5.7734 39.602 9.9727 39.602 26.605 0 14.27-16.969 26.328-37.055 26.328-20.09 0-37.055-12.059-37.055-26.328 0-7.5859-6.1445-13.727-13.727-13.727-7.5859 0-13.727 6.1445-13.727 13.727 0 25.727 21.793 47.281 50.785 52.547v18.383c0 7.5859 6.1445 13.727 13.727 13.727 7.5859 0 13.727-6.1445 13.727-13.727v-18.383c29.004-5.2578 50.785-26.82 50.785-52.547 0-41.902-35.82-48.66-61.969-53.578-30.684-5.7734-39.602-9.9727-39.602-26.605z" fill="#674fa3"/>
</svg>
