<svg width="350" height="368" viewBox="0 0 350 368" fill="none" xmlns="http://www.w3.org/2000/svg">
<path d="M315.051 339.582C276.267 381.45 50.521 372.391 30.4256 340.342L174.507 280.967L315.051 339.582Z" fill="black" fill-opacity="0.5"/>
<path d="M3 225C6.00781 230 17.5078 233 23.5 235C17.5078 254 15.5078 293.5 28 332.5C30.8828 341.5 44.0219 354.746 69.5 340C143.008 287 210.008 287 281.008 342C293.008 350 308.008 345.5 313.5 338C318.008 334.5 332.008 297.5 328.508 232C333.008 232 345 228 345 228C345 228 347.5 228 347.5 221C335.508 80 305.508 16.5 189.008 11.5C191.016 8.5 189.008 4 182 3C180.492 2.49957 166.508 2.50043 164.508 3C163.508 3 156.508 3.5 157.5 10.5C64.5078 16 10.0078 54.5 3 225Z" fill="#242B3D" stroke="#192333" stroke-width="4"/>
<path d="M23.676 235.222C23.676 235.222 33.5 238 50.499 233.987C122 204.5 218 205.503 292.499 231.987C299 234.003 320.386 235.314 327.386 231.814" stroke="#192333" stroke-width="4"/>
<path d="M157 11C165 13.5 184 13 190.5 11" stroke="#192333" stroke-width="3"/>
<path d="M100.451 110.18V123.182C100.451 125.451 100.369 127.611 100.205 129.662C100.068 131.713 99.959 133.162 99.877 134.01H100.533C101.518 132.424 102.68 131.139 104.02 130.154C105.387 129.17 106.891 128.445 108.531 127.98C110.172 127.516 111.936 127.283 113.822 127.283C117.131 127.283 120.016 127.871 122.477 129.047C124.938 130.195 126.852 132.014 128.219 134.502C129.586 136.963 130.27 140.162 130.27 144.1V174H117.76V147.217C117.76 143.936 117.158 141.461 115.955 139.793C114.752 138.125 112.893 137.291 110.377 137.291C107.861 137.291 105.879 137.879 104.43 139.055C102.98 140.203 101.955 141.912 101.354 144.182C100.752 146.424 100.451 149.172 100.451 152.426V174H87.9414V110.18H100.451ZM161.934 127.201C168.086 127.201 172.803 128.541 176.084 131.221C179.365 133.9 181.006 137.975 181.006 143.443V174H172.27L169.85 167.766H169.521C168.209 169.406 166.869 170.746 165.502 171.785C164.135 172.824 162.562 173.59 160.785 174.082C159.008 174.574 156.848 174.82 154.305 174.82C151.598 174.82 149.164 174.301 147.004 173.262C144.871 172.223 143.189 170.637 141.959 168.504C140.729 166.344 140.113 163.609 140.113 160.301C140.113 155.434 141.822 151.852 145.24 149.555C148.658 147.23 153.785 145.945 160.621 145.699L168.578 145.453V143.443C168.578 141.037 167.949 139.273 166.691 138.152C165.434 137.031 163.684 136.471 161.441 136.471C159.227 136.471 157.053 136.785 154.92 137.414C152.787 138.043 150.654 138.836 148.521 139.793L144.379 131.344C146.812 130.059 149.533 129.047 152.541 128.309C155.576 127.57 158.707 127.201 161.934 127.201ZM168.578 152.754L163.738 152.918C159.691 153.027 156.875 153.752 155.289 155.092C153.73 156.432 152.951 158.195 152.951 160.383C152.951 162.297 153.512 163.664 154.633 164.484C155.754 165.277 157.217 165.674 159.021 165.674C161.701 165.674 163.957 164.881 165.789 163.295C167.648 161.709 168.578 159.453 168.578 156.527V152.754ZM213.244 164.854C214.611 164.854 215.938 164.717 217.223 164.443C218.535 164.17 219.834 163.828 221.119 163.418V172.729C219.779 173.33 218.111 173.822 216.115 174.205C214.146 174.615 211.986 174.82 209.635 174.82C206.9 174.82 204.439 174.383 202.252 173.508C200.092 172.605 198.383 171.061 197.125 168.873C195.895 166.658 195.279 163.582 195.279 159.645V137.537H189.291V132.246L196.182 128.062L199.791 118.383H207.789V128.145H220.627V137.537H207.789V159.645C207.789 161.395 208.281 162.707 209.266 163.582C210.277 164.43 211.604 164.854 213.244 164.854ZM262.422 160.383C262.422 163.5 261.684 166.139 260.207 168.299C258.758 170.432 256.584 172.059 253.686 173.18C250.787 174.273 247.178 174.82 242.857 174.82C239.658 174.82 236.91 174.615 234.613 174.205C232.344 173.795 230.047 173.111 227.723 172.154V161.818C230.211 162.939 232.877 163.869 235.721 164.607C238.592 165.318 241.107 165.674 243.268 165.674C245.701 165.674 247.438 165.318 248.477 164.607C249.543 163.869 250.076 162.912 250.076 161.736C250.076 160.971 249.857 160.287 249.42 159.686C249.01 159.057 248.107 158.359 246.713 157.594C245.318 156.801 243.131 155.775 240.15 154.518C237.279 153.314 234.914 152.098 233.055 150.867C231.223 149.637 229.855 148.188 228.953 146.52C228.078 144.824 227.641 142.678 227.641 140.08C227.641 135.842 229.281 132.656 232.562 130.523C235.871 128.363 240.287 127.283 245.811 127.283C248.654 127.283 251.361 127.57 253.932 128.145C256.529 128.719 259.195 129.635 261.93 130.893L258.156 139.916C255.887 138.932 253.74 138.125 251.717 137.496C249.721 136.867 247.684 136.553 245.605 136.553C243.773 136.553 242.393 136.799 241.463 137.291C240.533 137.783 240.068 138.535 240.068 139.547C240.068 140.285 240.301 140.941 240.766 141.516C241.258 142.09 242.188 142.732 243.555 143.443C244.949 144.127 246.986 145.016 249.666 146.109C252.264 147.176 254.52 148.297 256.434 149.473C258.348 150.621 259.824 152.057 260.863 153.779C261.902 155.475 262.422 157.676 262.422 160.383Z" fill="#E9E8F0"/>
</svg>
