<?xml version="1.0" encoding="UTF-8"?><svg id="Layer_1" xmlns="http://www.w3.org/2000/svg" viewBox="0 0 360 360"><defs><style>.cls-1{fill:#6750A4;stroke-width:0px;}</style></defs><path class="cls-1" d="M42.27,157.24c-17.97,12.06-26.94,33.61-28.71,54.58-1.52,17.98,3.64,42.56,24.6,46.56,28.71,5.49,50.44-25.59,56.29-49.72,4.34-17.91,6.86-49.92-14.76-57.94-.46-.17-.92-.33-1.39-.47-12.14-3.7-25.75.1-36.03,7Z"/><path class="cls-1" d="M82.09,100.97c-7.88,2.76-16.25,10.61-15.26,19.88.8,7.51,7.15,12.79,14.37,13.59,12.28,1.36,28.54-9.22,24.92-23.05-2.74-10.49-14.77-13.65-24.03-10.41Z"/><path class="cls-1" d="M149.24,115.99c-12.05,3.13-24.65,9.57-29.9,21.6-2.98,6.81-1.23,14.21,5.33,18.11,4.91,2.92,10.68,3.75,16.3,4.06,3.59.2,13.13-1.61,15.83,1.13,5.95,6.05-8.07,13.25-11.69,15.56-11.72,7.5-23.36,16.65-30.17,29.06-5.24,9.54-7.91,21.29-3.81,31.73,3.89,9.9,12.38,16.11,22.49,18.79,15.92,4.22,34.31,6.17,50.47,1.51,7.89-2.27,15.33-6.43,20.18-13.21,6.05-8.45,9.55-21.25,4.9-31.25-2.48-5.33-7.33-9.03-12.82-10.87-5.17-1.72-12.04-1.1-15.42-6.19-9.18-13.83,9.23-25.44,19.15-31.59,9.74-6.04,20.61-17.22,21.61-29.24,2.57-30.93-55.45-23.63-72.45-19.21Z"/><path class="cls-1" d="M339.09,190c-6.29-6.86-15.45-6.12-23.41-2.8-8,3.33-15.28,8.22-23.74,10.47-3.83,1.03-8.47,1.89-12.21.06-1.33-.64-2.56-1.95-3.37-3.39-3.51-6.31,5.66-6.72,9.53-7.58,17.05-3.8,30.73-19.87,29.85-37.67-1.18-23.91-28.26-32.81-48.29-27.12-19,5.4-30.53,21.94-33.01,41.03-2.61,20.05.15,41.59,10.03,59.43,9.9,17.9,28.79,29.75,49.62,29.43,14.84-.21,31.22-5.37,42.12-15.75,12.02-11.45,14.63-33.32,2.88-46.13ZM280.28,152.16c1.36-.85,2.75-1.08,4.06-.88,4.77.72,8.23,7.28,3.51,10.9-3.16,2.42-9.55,2.95-10.72-1.87-.69-2.9.6-6.55,3.14-8.14Z"/></svg>