<?xml version="1.0" encoding="UTF-8"?><svg id="Layer_1" xmlns="http://www.w3.org/2000/svg" viewBox="0 0 360 360"><defs><style>.cls-1{fill:#6750A4;stroke-width:0px;}.cls-1,.cls-2{stroke-width:0px;}.cls-2{fill:#fff;}</style></defs><circle class="cls-1" cx="180" cy="180" r="166.68"/><path class="cls-2" d="M85.54,167.85c-12.33,8.27-18.47,23.05-19.69,37.43-1.04,12.33,2.5,29.19,16.87,31.94,19.69,3.77,34.59-17.55,38.61-34.1,2.98-12.28,4.7-34.24-10.12-39.74-.31-.12-.63-.22-.95-.32-8.33-2.53-17.66.07-24.72,4.8Z"/><path class="cls-2" d="M112.85,129.25c-5.41,1.89-11.14,7.28-10.47,13.63.55,5.15,4.9,8.77,9.86,9.32,8.42.94,19.58-6.32,17.09-15.81-1.88-7.19-10.13-9.36-16.48-7.14Z"/><path class="cls-2" d="M158.91,139.56c-8.26,2.15-16.9,6.57-20.51,14.82-2.04,4.67-.84,9.75,3.66,12.42,3.37,2,7.33,2.58,11.18,2.79,2.46.13,9.01-1.11,10.86.78,4.08,4.15-5.53,9.09-8.02,10.67-8.04,5.14-16.02,11.42-20.69,19.93-3.59,6.54-5.42,14.6-2.61,21.76,2.67,6.79,8.49,11.05,15.42,12.89,10.92,2.9,23.53,4.23,34.62,1.04,5.41-1.56,10.51-4.41,13.84-9.06,4.15-5.79,6.55-14.57,3.36-21.43-1.7-3.65-5.03-6.2-8.79-7.45-3.55-1.18-8.25-.75-10.57-4.25-6.29-9.49,6.33-17.45,13.13-21.67,6.68-4.14,14.14-11.81,14.82-20.06,1.76-21.22-38.03-16.21-49.69-13.18Z"/><path class="cls-2" d="M289.12,190.31c-4.31-4.71-10.59-4.19-16.06-1.92-5.49,2.28-10.48,5.64-16.28,7.18-2.63.7-5.81,1.29-8.37.04-.91-.44-1.76-1.33-2.31-2.32-2.4-4.33,3.88-4.61,6.54-5.2,11.7-2.6,21.07-13.63,20.48-25.84-.81-16.4-19.38-22.5-33.12-18.6-13.03,3.71-20.94,15.05-22.64,28.14-1.79,13.75.1,28.53,6.88,40.76,6.79,12.28,19.75,20.4,34.03,20.19,10.18-.14,21.41-3.68,28.89-10.8,8.24-7.85,10.03-22.86,1.97-31.64ZM248.78,164.37c.93-.58,1.89-.74,2.79-.61,3.27.5,5.64,4.99,2.41,7.47-2.17,1.66-6.55,2.02-7.35-1.28-.47-1.99.41-4.49,2.16-5.58Z"/></svg>