<?xml version="1.0" encoding="UTF-8"?>
<svg width="1200pt" height="1200pt" version="1.1" viewBox="0 0 1200 1200" xmlns="http://www.w3.org/2000/svg">
 <path d="m961.26 829.74c-4.6211 0-9.1406-1.332-13.023-3.8398l-193.68-125.4h-385.74c-6.3672 0-12.469-2.5273-16.973-7.0312-4.5-4.5-7.0273-10.605-7.0273-16.969v-496.5c0-6.3633 2.5273-12.469 7.0273-16.969 4.5039-4.5039 10.605-7.0312 16.973-7.0312h807.18c6.3633 0 12.469 2.5273 16.969 7.0312 4.5039 4.5 7.0312 10.605 7.0312 16.969v496.5c0 6.3633-2.5273 12.469-7.0312 16.969-4.5 4.5039-10.605 7.0312-16.969 7.0312h-190.44v105.3c-0.015625 6.4062-2.5898 12.543-7.1562 17.039-4.5625 4.4961-10.734 6.9805-17.141 6.8984zm-568.44-177.24h368.82c4.6172 0 9.1406 1.332 13.02 3.8398l162.72 105.36v-85.262 0.003906c0-6.3672 2.5312-12.473 7.0312-16.973s10.605-7.0273 16.969-7.0273h190.62v-448.44h-759.18z" fill="#674fa3"/>
 <path d="m781.86 499.56h-18.898c-4.457-0.003906-8.75-1.6953-12.012-4.7344-3.2617-3.0352-5.25-7.1992-5.5703-11.645l-15.059-206.64c-0.35156-4.8828 1.3438-9.6875 4.6797-13.273 3.332-3.582 8.0039-5.6211 12.898-5.625h49.023c4.8945 0.003906 9.5664 2.043 12.898 5.625 3.3359 3.5859 5.0312 8.3906 4.6797 13.273l-15.059 206.64c-0.32031 4.4453-2.3086 8.6094-5.5703 11.645-3.2617 3.0391-7.5547 4.7305-12.012 4.7344z" fill="#674fa3"/>
 <path d="m804.72 562.08c0 17.828-14.449 32.281-32.277 32.281s-32.281-14.453-32.281-32.281c0-17.824 14.453-32.277 32.281-32.277s32.277 14.453 32.277 32.277" fill="#674fa3"/>
 <path d="m203.52 966.36c-6.3633 0-12.469-2.5273-16.969-7.0273-4.5039-4.5039-7.0312-10.605-7.0312-16.973v-85.078h-157.08c-6.3672 0-12.473-2.5312-16.973-7.0312s-7.0273-10.605-7.0273-16.969v-418.68c0-6.3672 2.5273-12.473 7.0273-16.973s10.605-7.0273 16.973-7.0273h239.16c8.5742 0 16.496 4.5742 20.781 12 4.2891 7.4258 4.2891 16.574 0 24-4.2852 7.4258-12.207 12-20.781 12h-215.16v370.74h156.78c6.3672 0 12.473 2.5273 16.973 7.0312 4.5 4.5 7.0273 10.605 7.0273 16.969v65.039l131.46-85.141c3.8789-2.5039 8.4023-3.8359 13.02-3.8398h307.26v-26.578c0-8.5742 4.5742-16.496 12-20.785 7.4258-4.2852 16.574-4.2852 24 0 7.4258 4.2891 12 12.211 12 20.785v50.578c0 6.3672-2.5312 12.473-7.0312 16.973s-10.605 7.0273-16.969 7.0273h-324l-162.42 105.06c-3.8711 2.5273-8.3945 3.8789-13.02 3.8984z" fill="#674fa3"/>
</svg>
