<?xml version="1.0" encoding="UTF-8"?>
<svg width="1200pt" height="1200pt" version="1.1" viewBox="0 0 1200 1200" xmlns="http://www.w3.org/2000/svg">
 <path d="m730.31 709.87h349.6v-25.266h-343.13c0.89062-22.875-11.25-42.797-24.141-63.797v0.046875c-13.453-19.031-23.016-40.453-28.172-63.188-5.1562-29.672 2.6719-63.141 22.969-98.25h0.046875c53.812-3.5625 107.3-10.781 160.13-21.562 15.141-3.1406 50.531-10.359 64.406-37.875 10.125-19.969 5.9531-43.078-17.062-95.203v-0.046875c-19.406-44.391-42.328-87.234-68.438-128.06-48.234-72.375-72.469-108.75-104.2-130.6-43.406-29.625-94.688-45.656-147.24-46.078-46.594 0.046875-92.344 12.141-132.84 35.109-46.969 26.531-71.625 59.25-108.84 108.61h-0.046875c-5.8125 7.6406-10.875 15.844-15 24.516-8.0625 14.906-22.969 42.703-61.359 109.22l-0.89062 1.6406c-20.578 35.719-32.953 57.328-29.062 87.141 3.8906 24.328 16.359 46.453 35.109 62.391 32.812 28.172 74.766 28.266 92.578 28.266l0.60938-6.3281v6.3281c30.938 0 63.141 1.4062 98.109 2.6719h7.2188c13.359 32.719 17.109 68.578 10.734 103.31-3.6094 15.094-8.625 29.812-15.047 43.922-10.219 24.609-19.828 47.859-13.5 78.938h-342.74v25.266h351.1c4.5469 9.6562 10.453 18.609 17.531 26.531 6.2344 6.9375 13.312 13.078 21.094 18.188-4.9219 41.156-17.156 67.922-36.75 79.312-14.531 8.5781-29.062 6.4219-47.484 3.6562l-12.609-1.7812c-26.859-28.922-63-47.531-102.19-52.547-95.484-11.344-156.71 67.312-159.24 70.594l20.062 15.281v0.046876c18.844-22.594 42.844-40.312 69.984-51.656 4.875 12 7.0781 24.938 6.4219 37.875v1.0312l-44.953 12.609 3.5156 12.609 39.281-11.484h0.046874c-3.6562 14.812-10.828 28.547-21 39.891l9.4688 8.4844c15.562-17.25 24.844-39.234 26.391-62.391 0.65625-14.578-1.9219-29.062-7.4062-42.562 17.531-5.3906 36.047-7.125 54.281-5.0625 24.703 3.1406 48.094 12.75 67.828 27.938-8.7188 1.4062-17.203 3.9844-25.266 7.5469-37.125 15.797-64.125 48.844-72.094 88.406-5.5781 35.25 10.5 64.031 27.516 91.547v0.046874c-27.562 5.3438-52.359 20.297-69.984 42.141l-0.75 1.0312c-8.1094-12.797-20.625-22.172-35.25-26.25-9.5156-2.3906-19.5-2.3906-29.016 0l3.0469 12.609h-0.046876c7.5938-1.9688 15.562-1.9688 23.156 0 13.172 4.0312 24.188 13.078 30.656 25.266-14.766 24.422-20.438 53.25-16.031 81.469l25.266-4.1719c-1.0781-7.3594-1.3125-14.812-0.65625-22.219 12.469-1.2188 24.938 1.5938 35.625 8.0625 4.9219 3.4688 9.1875 7.7344 12.656 12.609l10.125-7.6875h-0.046876c-4.5469-6-10.078-11.156-16.406-15.281-12.094-7.7812-26.297-11.578-40.688-10.875 2.9531-13.828 9.0938-26.812 17.953-37.875 16.359-19.547 39.891-31.734 65.297-33.844 28.5 39.703 64.547 73.453 106.08 99.281l13.406-21.469h-0.046876c-15.094-9.5625-29.484-20.203-43.031-31.828l42.562-24-6.1875-10.969-46.359 26.156v-0.046874c-21.891-19.969-40.969-42.797-56.719-67.922-15.141-24.516-28.547-46.078-28.172-70.594l32.812 12.609 4.6875-11.766-35.859-14.25c7.4062-29.859 28.219-54.609 56.344-67.078 19.641-7.8281 41.25-9.3281 61.781-4.2656 20.578 3.0469 41.812 6.1875 64.031-6.7969 25.266-14.531 41.062-44.438 47.859-88.406v-0.046876c13.172 5.2031 27.047 8.4375 41.156 9.75-18.234 27.891-30.281 59.344-35.25 92.297-5.625 25.031-4.9688 51.094 1.9219 75.797-16.641 1.875-32.859 6.5156-48 13.641-19.219 9.0938-36.422 21.984-50.531 37.875l18.047 17.156c11.297-12.844 24.984-23.344 40.312-30.938 7.6406 9.5156 13.078 20.625 15.891 32.484 4.1719 18.75 1.7812 38.344-6.6562 55.547l11.344 5.5781c4.8281-10.031 8.0156-20.766 9.3281-31.828 2.5312 1.6406 4.7344 3.6562 6.5625 6.0469 2.0625 2.5312 3.6094 5.3906 4.5469 8.4844l12.609-4.3125h0.046876c-3.8906-10.875-12.047-19.688-22.594-24.375-0.14063-6.0469-0.89063-12.047-2.2969-17.953-2.9531-12.703-8.625-24.703-16.547-35.062 13.453-5.2031 27.656-8.0625 42.047-8.4844 9.1406 9.6094 20.719 16.547 33.469 20.062 13.031 3.7969 25.031 10.406 35.109 19.453 3.9375 3.5156 38.906 36 36.516 73.266-2.6719 18.609-11.578 35.719-25.266 48.609-10.969 12.609-22.5 26.016-16.547 42.047 5.9531 16.031 29.672 26.016 74.531 26.016 8.9531 0 18.797 0 29.672-1.0312l-1.5-25.266c-72.234 4.4062-78.938-8.3438-78.938-8.5781 0-2.6719 7.3125-11.484 12.609-16.922 5.2969-5.4375 7.3125-8.5781 11.109-13.5l92.297 15.047 4.0312-25.266-83.297-12.891c3.6562-8.3906 5.8594-17.344 6.4219-26.484 0.32813-27.469-9.375-54.094-27.281-74.906 16.828-8.6719 35.297-13.781 54.188-15.047 6.3281-0.46875 12.703-0.46875 19.078 0l2.7656 28.547 12.609-1.2656-2.3906-25.266c11.062 1.9219 21.797 5.1562 32.109 9.6094l10.125-23.25h-0.046876c-23.906-10.125-49.875-14.438-75.75-12.609-24.797 1.4531-48.891 8.5312-70.5 20.719-12.328-11.484-27.094-20.109-43.172-25.266-10.078-2.3438-18.984-8.1094-25.266-16.266-15.281-20.859-11.109-48.984-7.0781-75.797 5.4375-34.734 19.406-67.594 40.688-95.578 29.578-2.0625 58.172-11.344 83.344-27.047 58.219 29.578 119.72 52.219 183.24 67.453l4.5469 1.0312c20.953 4.7812 52.641 12.609 57.609 28.031 1.2656 4.3125 0 7.0781-5.5781 17.812v-0.046876c-54.422-6.7031-109.64 1.8281-159.52 24.656l5.1562 11.484h0.046875c28.828-13.031 59.672-21.188 91.172-24.141 18.938-1.9688 38.016-1.9688 56.953 0-4.0312 8.1562-7.4531 16.594-10.219 25.266-7.2188 23.719-10.406 48.469-9.375 73.266-12 1.0312-23.438 5.7656-32.672 13.5-16.781 14.812-24.469 37.406-20.203 59.344l12.609-2.3906c-3.6562-17.484 2.3438-35.578 15.797-47.344 7.1719-5.9531 15.984-9.6562 25.266-10.641 0.75 10.5 1.875 19.969 2.9062 28.172 2.6719 21.047 7.4062 41.766 14.109 61.875l24-7.9688v0.046874c-6.0938-18.562-10.312-37.688-12.609-57.094-2.5781-16.312-3.9844-32.766-4.1719-49.266l122.02 5.9531 1.125-25.266-47.391-2.2969c2.9062-8.8594 7.6875-16.969 14.016-23.859 9.2812-9.9844 21.328-17.016 34.641-20.062l-2.7656-12.609-0.046875-0.046874c-28.359 6.3281-51 27.656-58.969 55.594l-60.375-3.0469c1.3125-9.75 3.4688-19.406 6.4688-28.781 3.5625-11.203 8.2969-22.031 14.016-32.344 8.1562-10.828 10.969-24.75 7.6875-37.875-5.9531-19.219-23.859-29.672-43.453-36.375 15.703-12.562 34.125-21.234 53.812-25.266 30.891-6.0938 62.906-0.79688 90.188 14.906l12.609-21.844c-4.5469-2.6719-9.2812-5.0625-14.156-7.2188l16.547-9.8438-6.4219-10.875-25.266 14.906c-25.312-8.5312-52.453-10.219-78.656-4.9219-29.438 6.2812-56.344 21-77.578 42.328l-3.7969-0.89063-4.7812-0.60937c-57.703-13.781-113.72-33.938-166.97-60.141 8.0156-6.7031 14.625-14.953 19.453-24.234zm-20.344-16.406h0.046875c-4.1719 10.641-11.344 19.828-20.625 26.484-45.609 40.781-138.94 49.266-181.74 0.89062h0.046874c-9.6094-10.828-16.406-23.812-19.828-37.875-5.5781-24.375 2.1562-42.703 11.859-65.906 6.9844-15.609 12.469-31.781 16.406-48.375 6.8906-35.953 3.9844-73.125-8.3438-107.62 30.047 1.125 61.266 1.875 93.469 1.875 25.266 0 50.531 0 76.641-1.7812v0.046875c-16.828 30.844-23.25 66.281-18.281 101.02 5.5781 26.016 16.312 50.578 31.547 72.375 15.422 24.516 24.516 41.203 18.844 58.875z" fill="#674fa3"/>
</svg>
