<?xml version="1.0" encoding="UTF-8"?>
<svg width="1200pt" height="1200pt" version="1.1" viewBox="0 0 1200 1200" xmlns="http://www.w3.org/2000/svg">
 <path d="m450.75 834.38h298.49c4.5469-0.23438 8.8359-2.1758 12.02-5.4336 3.1797-3.2578 5.0156-7.5938 5.1406-12.145v-247.24c-0.17188-4.4297-2.0547-8.6211-5.2578-11.688-3.2031-3.0664-7.4688-4.7695-11.902-4.7461h-36.746v-71.633c0-63.246-49.852-114.7-112.5-114.7s-112.5 51.453-112.5 114.7v71.633h-36.746c-4.4336-0.023438-8.6992 1.6797-11.902 4.7461-3.2031 3.0664-5.0859 7.2578-5.2578 11.688v247.24c0.125 4.5508 1.9609 8.8867 5.1406 12.145 3.1836 3.2578 7.4727 5.1992 12.02 5.4336zm69.559-352.88c0-45.152 35.129-81.887 79.688-81.887s79.688 36.734 79.688 81.887v71.633h-159.38zm-53.906 104.45h267.19v215.62h-267.19z" fill="#674fa3"/>
 <path d="m293.93 970.14 296.76 202.34h0.003906c2.7344 1.8594 5.9609 2.8555 9.2695 2.8555 3.3047 0 6.5352-0.99609 9.2695-2.8555l296.69-202.34c41.812-28.508 81.078-74.629 110.3-129.86 29.25-55.277 45.5-113.61 45.5-164.24v-416.38c-0.027344-3.082-0.91406-6.0898-2.5586-8.6914-1.6484-2.6016-3.9844-4.6953-6.7539-6.0391l-445.1-218.58c-4.5703-2.2344-9.918-2.2344-14.484 0l-445.19 217.97h-0.003906c-2.7695 1.3398-5.1133 3.4258-6.7656 6.0273-1.6523 2.5977-2.5469 5.6094-2.582 8.6875v417c0 103.71 69.902 235.64 155.64 294.1zm-122.83-294.1v-406.77l428.91-209.92 428.91 210.53v406.16c0 94.145-63.473 213.92-141.33 267l-287.51 196.03-287.48-196.04c-37.422-25.512-72.961-67.531-99.793-118.32-26.789-50.723-41.703-103.52-41.703-148.67z" fill="#674fa3"/>
 <path d="m600 950.74c193.4 0 350.74-157.34 350.74-350.74s-157.34-350.74-350.74-350.74-350.74 157.34-350.74 350.74 157.34 350.74 350.74 350.74zm0-668.67c175.31 0 317.93 142.62 317.93 317.93 0 175.3-142.61 317.93-317.93 317.93s-317.93-142.61-317.93-317.93 142.61-317.93 317.93-317.93z" fill="#674fa3"/>
</svg>
