<?xml version="1.0" encoding="UTF-8"?>
<svg width="1200pt" height="1200pt" version="1.1" viewBox="0 0 1200 1200" xmlns="http://www.w3.org/2000/svg">
 <path d="m1087.5 675c4.9727 0 9.7422-1.9766 13.258-5.4922 3.5156-3.5156 5.4922-8.2852 5.4922-13.258v-112.5c0-4.9727-1.9766-9.7422-5.4922-13.258-3.5156-3.5156-8.2852-5.4922-13.258-5.4922h-225c-4.9727 0-9.7422 1.9766-13.258 5.4922-3.5156 3.5156-5.4922 8.2852-5.4922 13.258v37.5h-123.48l-101.52-101.52v-48.484h93.75c4.9727 0 9.7422-1.9766 13.258-5.4922 3.5156-3.5156 5.4922-8.2852 5.4922-13.258v-112.5c0-4.9727-1.9766-9.7422-5.4922-13.258-3.5156-3.5156-8.2852-5.4922-13.258-5.4922h-93.75v-40.164c23.77-6.1367 43.031-23.52 51.57-46.539 8.5352-23.016 5.2656-48.758-8.7539-68.91-14.02-20.152-37.016-32.168-61.566-32.168s-47.547 12.016-61.566 32.168c-14.02 20.152-17.289 45.895-8.7539 68.91 8.5391 23.02 27.801 40.402 51.57 46.539v40.164h-93.75c-4.9727 0-9.7422 1.9766-13.258 5.4922-3.5156 3.5156-5.4922 8.2852-5.4922 13.258v112.5c0 4.9727 1.9766 9.7422 5.4922 13.258 3.5156 3.5156 8.2852 5.4922 13.258 5.4922h93.75v48.484l-101.52 101.52h-123.48v-37.5c0-4.9727-1.9766-9.7422-5.4922-13.258-3.5156-3.5156-8.2852-5.4922-13.258-5.4922h-225c-4.9727 0-9.7422 1.9766-13.258 5.4922-3.5156 3.5156-5.4922 8.2852-5.4922 13.258v112.5c0 4.9727 1.9766 9.7422 5.4922 13.258 3.5156 3.5156 8.2852 5.4922 13.258 5.4922h93.75v37.5h-93.75c-4.9727 0-9.7422 1.9766-13.258 5.4922-3.5156 3.5156-5.4922 8.2852-5.4922 13.258v112.5c0 4.9727 1.9766 9.7422 5.4922 13.258 3.5156 3.5156 8.2852 5.4922 13.258 5.4922h93.75v96.414c-23.77 6.1367-43.031 23.52-51.57 46.539-8.5352 23.016-5.2656 48.758 8.7539 68.91 14.02 20.152 37.016 32.168 61.566 32.168s47.547-12.016 61.566-32.168c14.02-20.152 17.289-45.895 8.7539-68.91-8.5391-23.02-27.801-40.402-51.57-46.539v-96.414h93.75c4.9727 0 9.7422-1.9766 13.258-5.4922 3.5156-3.5156 5.4922-8.2852 5.4922-13.258v-112.5c0-4.9727-1.9766-9.7422-5.4922-13.258-3.5156-3.5156-8.2852-5.4922-13.258-5.4922h-93.75v-37.5h93.75c4.9727 0 9.7422-1.9766 13.258-5.4922 3.5156-3.5156 5.4922-8.2852 5.4922-13.258v-37.5h123.48l101.52 101.52v67.234c0 4.9727 1.9766 9.7422 5.4922 13.258 3.5156 3.5156 8.2852 5.4922 13.258 5.4922h243.75v37.5c0 4.9727 1.9766 9.7422 5.4922 13.258 3.5156 3.5156 8.2852 5.4922 13.258 5.4922h225c4.9727 0 9.7422-1.9766 13.258-5.4922 3.5156-3.5156 5.4922-8.2852 5.4922-13.258v-112.5c0-4.9727-1.9766-9.7422-5.4922-13.258-3.5156-3.5156-8.2852-5.4922-13.258-5.4922h-93.75v-37.5zm-525-506.25c0-9.9453 3.9492-19.484 10.984-26.516 7.0312-7.0352 16.57-10.984 26.516-10.984s19.484 3.9492 26.516 10.984c7.0352 7.0312 10.984 16.57 10.984 26.516s-3.9492 19.484-10.984 26.516c-7.0312 7.0352-16.57 10.984-26.516 10.984-9.9414-0.011719-19.473-3.9688-26.5-11-7.0312-7.0273-10.988-16.559-11-26.5zm-56.25 150h187.5v75h-187.5zm-243.75 712.5c0 9.9453-3.9492 19.484-10.984 26.516-7.0312 7.0352-16.57 10.984-26.516 10.984s-19.484-3.9492-26.516-10.984c-7.0352-7.0312-10.984-16.57-10.984-26.516s3.9492-19.484 10.984-26.516c7.0312-7.0352 16.57-10.984 26.516-10.984 9.9414 0.011719 19.473 3.9688 26.5 11 7.0312 7.0273 10.988 16.559 11 26.5zm56.25-206.25h-187.5v-75h187.5zm0-187.5h-187.5v-75h187.5zm562.5-75h187.5v75h-187.5zm-281.25-48.484 85.984 85.984-85.984 85.984-85.984-85.984zm468.75 310.98h-187.5v-75h187.5zm-112.5-112.5h-93.75c-4.9727 0-9.7422 1.9766-13.258 5.4922-3.5156 3.5156-5.4922 8.2852-5.4922 13.258v37.5h-225v-48.484l101.52-101.52h123.48v37.5c0 4.9727 1.9766 9.7422 5.4922 13.258 3.5156 3.5156 8.2852 5.4922 13.258 5.4922h93.75z" fill="#674fa3"/>
</svg>
