<?xml version="1.0" encoding="UTF-8"?>
<svg width="1200pt" height="1200pt" version="1.1" viewBox="0 0 1200 1200" xmlns="http://www.w3.org/2000/svg">
 <path d="m415.45 712.97c99.562 9.9375 98.766 104.11 23.016 114.8-4.7344 60.891-75.656 80.531-125.86 60.516-25.781 26.25-84.516 26.484-104.48-6.4688-33.75 17.859-82.266 8.4375-100.69-26.625-93.891-13.078-100.73-101.3-20.531-116.02 2.8125-20.484 18.281-38.062 35.812-48.188 89.953-531.1 864.71-531.05 954.66 0 17.531 10.125 33 27.703 35.766 48.188 80.156 14.719 73.312 102.94-20.531 116.02-18.422 35.062-66.938 44.484-100.69 26.625-19.969 32.953-78.703 32.766-104.48 6.4688-50.484 20.156-121.13 0.42188-125.86-60.516-75.703-10.688-76.688-104.91 23.016-114.84 1.8281-14.297 8.6719-27.047 19.172-36.891-80.859-170.16-326.58-170.16-407.39 0 10.453 9.8438 17.297 22.688 19.125 36.938zm-36.844-49.078c89.438-182.29 353.48-182.26 442.87 0.09375 13.5-6.3281 27.281-9.1875 41.859-7.2656-98.812-226.69-427.92-226.74-526.69 0.046875 14.25-1.7344 29.016 0.84375 41.953 7.125zm-209.39 17.578c5.25-9.2812 12-17.156 20.391-23.812 115.08-411.28 705.66-411.28 820.78 0 8.25 6.4688 15.188 14.672 20.344 23.812 7.7812-1.3125 15.703-1.0312 23.391 0.5625-95.109-490.97-813.19-491.02-908.34 0 7.6875-1.5938 15.609-1.875 23.391-0.5625zm724.74 180.28c27.469 39.75 77.953 33.469 84.984-16.547 33 27.703 79.406 40.547 99-9.7969 74.812-7.3594 104.2-68.859 13.453-77.438 3.7031-43.875-33.984-64.172-72.141-50.812-25.922-61.125-88.125-61.547-125.9-12-41.109-34.219-89.578-17.062-87.656 38.109-92.391-1.0781-104.34 74.625-22.312 74.391-4.5469 70.406 59.719 79.125 110.58 54.094zm89.953-218.26c-120.32-364.26-647.44-364.22-767.76 0 13.031-4.2656 26.953-5.5312 40.594-3.8906 120.24-310.82 566.34-310.87 686.58 0 13.594-1.6875 27.562-0.375 40.594 3.8906zm-61.453 1.125c-114.42-289.31-530.44-289.31-644.86 0 12.328 4.5469 23.438 11.625 32.578 21.047 98.719-267.05 480.94-267 579.66 0 9.1875-9.4688 20.25-16.547 32.625-21.094zm-813.79 113.39c-88.688 6.8438-61.453 73.031 13.359 77.203 19.547 50.109 65.672 38.062 99.047 9.9375 7.5938 54.141 60.141 52.453 84.984 16.547 51.469 25.266 115.08 15.891 110.58-54.094 81.609 0.46875 70.5-75.188-22.312-74.391 1.9688-57.516-48.75-70.453-87.656-38.062-38.578-50.578-100.31-48.094-125.9 12.047-38.109-13.5-75.891 6.9844-72.094 50.859z" fill="#674fa3" fill-rule="evenodd"/>
</svg>
