<?xml version="1.0" encoding="UTF-8"?>
<svg width="1200pt" height="1200pt" version="1.1" viewBox="0 0 1200 1200" xmlns="http://www.w3.org/2000/svg">
 <path d="m1050 750h-1.875c-11.25-24.375-26.25-46.875-45-65.625-43.125-43.125-99.375-65.625-159.37-65.625h-151.87c-9.375-43.125-46.875-75-91.875-75s-82.5 31.875-91.875 75h-151.87c-69.375 0-133.13-37.5-165-99.375 31.875-15 52.5-46.875 52.5-84.375s-22.5-71.25-56.25-86.25c9.375-18.75 20.625-35.625 35.625-50.625 35.625-35.625 82.5-54.375 133.13-54.375h151.87c9.375 43.125 46.875 75 91.875 75s82.5-31.875 91.875-75h116.25c9.375 84.375 80.625 150 166.87 150 93.75 0 168.74-75 168.74-168.74 0-93.742-75-168.74-168.74-168.74-86.25 0-157.5 65.625-166.87 150h-116.25c-9.375-43.125-46.875-75-91.875-75s-82.5 31.875-91.875 75h-151.87c-60 0-116.25 22.5-159.37 65.625-20.625 20.625-35.625 45-46.875 69.375-52.5 0-93.75 41.25-93.75 93.75s41.25 93.75 93.75 93.75h3.75c37.5 76.875 116.25 127.5 202.5 127.5h151.87c9.375 43.125 46.875 75 91.875 75s82.5-31.875 91.875-75h151.87c50.625 0 97.5 18.75 133.13 54.375 13.125 13.125 26.25 30 33.75 46.875-31.875 16.875-54.375 48.75-54.375 86.25s22.5 69.375 54.375 84.375c-31.875 61.875-95.625 103.12-166.87 103.12h-151.87c-9.375-43.125-46.875-75-91.875-75s-82.5 31.875-91.875 75h-266.26c-9.375-43.125-46.875-75-91.875-75-52.5 0-93.75 41.25-93.75 93.75s41.25 93.75 93.75 93.75c45 0 82.5-31.875 91.875-75h266.26c9.375 43.125 46.875 75 91.875 75s82.5-31.875 91.875-75h151.87c88.125 0 168.74-52.5 204.37-131.26h1.875c52.5 0 93.75-41.25 93.75-93.75s-41.25-93.75-93.75-93.75zm-142.5-540c9.375-5.625 20.625-3.75 26.25 5.625l22.5 33.75 60-90c5.625-9.375 16.875-11.25 26.25-5.625s11.25 16.875 5.625 26.25l-75 112.5c-5.625 3.75-11.25 7.5-16.875 7.5s-11.25-3.75-15-7.5l-37.5-56.25c-5.625-9.375-3.75-20.625 3.75-26.25z" fill="#674fa3"/>
</svg>
